<?xml version="1.0" standalone="no"?>
<!DOCTYPE svg PUBLIC "-//W3C//DTD SVG 20010904//EN"
 "http://www.w3.org/TR/2001/REC-SVG-20010904/DTD/svg10.dtd">
<svg version="1.0" xmlns="http://www.w3.org/2000/svg"
 width="460.000000pt" height="460.000000pt" viewBox="0 0 460.000000 460.000000"
 preserveAspectRatio="xMidYMid meet">

<g transform="translate(0.000000,460.000000) scale(0.100000,-0.100000)"
fill="#000000" stroke="none">
<path d="M2206 4568 c-31 -34 -65 -102 -66 -130 0 -22 -22 -23 -84 -2 -61 21
-69 13 -14 -14 42 -21 43 -21 13 -22 -58 -2 -250 1 -253 4 -1 2 6 28 18 57 11
30 20 62 20 72 0 55 -167 35 -305 -37 -61 -31 -133 -99 -307 -287 -77 -83
-156 -147 -202 -165 -9 -3 -26 6 -42 21 -24 24 -26 30 -19 82 8 68 -6 107 -46
124 -39 16 -97 -3 -136 -43 -27 -28 -28 -34 -27 -124 l0 -94 -31 0 c-26 0 -32
5 -40 33 -13 42 -29 37 -35 -10 -4 -34 -8 -38 -37 -41 -40 -4 -61 -27 -46 -50
8 -13 5 -26 -13 -57 -30 -51 -54 -165 -55 -258 0 -74 -8 -72 -29 8 l-8 30 -1
-32 c-1 -39 24 -107 56 -149 l23 -32 -36 -32 c-32 -27 -43 -31 -80 -28 -46 3
-57 -9 -29 -32 23 -19 18 -39 -11 -50 -121 -47 -182 -172 -140 -287 7 -21 18
-69 24 -106 7 -49 28 -104 73 -195 34 -70 84 -190 110 -266 27 -77 64 -165 83
-195 l34 -56 -5 -185 c-7 -210 1 -255 61 -350 72 -115 107 -181 111 -207 8
-60 35 -173 51 -214 10 -24 17 -61 18 -81 0 -22 5 -38 12 -38 23 0 46 -49 39
-82 l-7 -31 45 6 45 6 11 -50 c13 -60 23 -80 56 -113 14 -14 36 -49 50 -78 40
-82 54 -94 114 -100 44 -4 59 -12 94 -45 23 -22 65 -58 94 -81 l51 -42 -15
-58 c-16 -63 -37 -102 -55 -102 -6 0 -39 30 -73 67 l-62 67 -6 -79 c-4 -44
-12 -123 -19 -175 l-11 -95 -204 0 c-156 0 -206 3 -212 13 -6 10 -22 5 -69
-23 -68 -41 -78 -51 -84 -80 -3 -16 -14 -21 -65 -28 -126 -15 -113 -26 30 -26
119 1 138 3 135 16 -4 23 -39 42 -45 25 -5 -13 -23 -7 -23 9 0 6 15 9 32 7 24
-2 36 -10 46 -30 11 -23 20 -28 48 -28 38 0 41 6 18 38 -9 13 -14 26 -10 29 3
3 13 -11 22 -31 l18 -36 1355 0 c1080 0 1352 3 1343 12 -9 9 -81 15 -239 20
-166 6 -229 11 -234 20 -5 7 -11 33 -15 56 -6 42 -4 46 36 87 l43 44 28 -19
c50 -36 68 -31 104 29 40 67 54 75 104 60 55 -16 101 -5 140 35 18 19 53 42
76 51 34 12 45 23 50 44 5 24 -4 88 -21 144 -5 14 2 17 42 17 61 0 122 29 178
86 59 58 67 91 29 121 -15 13 -36 23 -45 23 -47 0 -49 12 -8 47 22 19 40 40
40 47 0 7 -29 36 -65 65 -36 29 -65 56 -65 59 0 4 21 54 46 112 26 58 52 119
59 135 16 39 61 188 72 240 7 30 14 40 28 38 10 -1 66 2 125 7 188 13 190 17
245 426 11 86 17 105 39 127 22 22 26 35 26 86 0 56 -2 62 -32 85 -45 34 -127
64 -233 87 -49 10 -94 19 -98 19 -5 0 -6 13 -2 29 3 16 8 48 10 71 2 23 6 45
9 48 3 2 54 16 113 29 61 14 115 31 124 41 30 30 31 56 5 93 -24 32 -76 124
-76 132 0 2 46 6 103 9 58 3 118 12 139 21 36 15 104 75 95 83 -2 3 -28 -7
-58 -21 -55 -25 -89 -32 -89 -17 0 5 29 34 65 66 104 92 154 219 126 322 -15
58 -47 82 -126 99 -80 16 -97 29 -69 50 21 16 8 20 -16 5 -12 -7 -19 7 -41 78
-35 120 -83 212 -142 272 -52 54 -91 77 -174 104 -29 10 -53 21 -53 25 0 4 23
20 52 36 109 63 142 147 95 247 -31 68 -58 95 -101 103 -71 14 -126 -45 -126
-135 0 -52 -18 -83 -60 -105 -33 -17 -96 -20 -105 -5 -4 6 4 39 16 74 20 55
21 67 10 94 -8 18 -30 45 -51 60 -32 23 -37 31 -28 47 9 15 6 23 -16 42 -30
26 -48 28 -95 12 -37 -13 -81 -5 -81 15 0 24 -29 26 -65 5 -19 -12 -35 -23
-35 -26 0 -3 16 -30 35 -59 19 -29 35 -59 35 -67 0 -50 -67 -147 -102 -147
-15 0 -18 8 -18 44 0 72 -11 104 -48 142 -53 54 -111 76 -224 82 -54 2 -98 8
-98 13 0 5 -16 24 -35 43 l-35 36 27 6 c15 4 47 2 71 -5 50 -13 69 -7 28 9
-68 25 -141 10 -315 -67 -11 -5 -13 3 -8 43 3 31 0 61 -8 82 -16 36 -30 44
-20 10 l7 -21 -35 21 c-31 20 -48 22 -183 21 l-149 0 -29 -31z m116 -59 c-4
-4 -22 -9 -41 -13 -28 -5 -32 -4 -21 9 6 8 25 13 40 12 16 -1 26 -5 22 -8z
m-657 -39 c-27 -12 -43 -12 -25 0 8 5 22 9 30 9 10 0 8 -3 -5 -9z m620 0 c16
-7 13 -9 -17 -9 -21 -1 -38 4 -38 9 0 12 27 12 55 0z m-690 -30 c-27 -12 -43
-12 -25 0 8 5 22 9 30 9 10 0 8 -3 -5 -9z m2374 -125 c26 -13 41 -33 41 -56 0
-13 -24 -11 -56 6 -38 20 -51 19 -66 -4 -11 -18 -13 -18 -25 -3 -18 24 -17 28
20 51 38 25 49 26 86 6z m-106 -78 c3 -7 -1 -24 -9 -38 -13 -24 -13 -23 -14
14 0 36 13 50 23 24z m-2805 -289 c-3 -7 -13 -15 -24 -17 -16 -3 -17 -1 -5 13
16 19 34 21 29 4z m1402 -748 c0 -5 -5 -10 -11 -10 -5 0 -7 5 -4 10 3 6 8 10
11 10 2 0 4 -4 4 -10z m-24 -38 c-4 -3 -11 0 -16 8 -15 24 -11 33 6 15 9 -9
13 -19 10 -23z m41 14 c-3 -8 2 -16 14 -19 10 -3 19 -1 19 4 0 5 9 9 20 9 11
0 20 -3 20 -7 0 -5 12 -9 28 -9 25 -2 109 -19 142 -30 13 -4 13 -6 0 -14 -11
-7 -6 -10 20 -10 25 0 31 -3 21 -9 -11 -7 -4 -11 25 -16 102 -16 156 -35 149
-53 -4 -10 2 -12 24 -7 18 4 32 2 36 -5 5 -9 10 -9 14 -1 4 7 16 4 35 -8 25
-17 26 -19 7 -24 -14 -3 -18 -1 -14 9 6 17 -11 18 -25 1 -8 -9 -4 -15 14 -24
13 -6 22 -7 18 -2 -6 11 -2 11 21 3 13 -6 14 -9 3 -16 -9 -6 -1 -8 24 -6 20 2
35 1 32 -3 -7 -12 54 -28 134 -35 53 -5 104 -18 167 -44 49 -20 96 -35 104
-32 8 3 11 0 8 -5 -10 -16 83 -54 168 -68 101 -17 114 -23 125 -63 5 -20 10
-88 10 -151 l0 -114 -72 7 c-256 22 -375 26 -568 21 -219 -7 -249 -5 -510 35
-176 27 -581 38 -759 21 -203 -20 -292 -37 -374 -70 -124 -49 -121 -51 -115
77 4 68 14 134 28 182 25 84 68 172 81 164 5 -3 9 1 9 9 0 8 19 34 43 59 23
24 39 39 35 34 -12 -15 -10 -23 6 -29 10 -4 13 -1 9 9 -5 14 4 18 44 14 22 -1
48 31 36 44 -4 4 14 -3 40 -16 36 -18 43 -24 29 -30 -11 -4 -5 -7 18 -7 27 -1
32 -4 20 -11 -11 -8 -9 -9 11 -5 16 4 30 1 37 -8 10 -11 1 -17 -48 -32 -77
-23 -72 -29 11 -11 164 37 260 38 425 7 89 -17 172 2 229 54 21 20 25 32 24
77 -2 87 -10 110 -44 121 -39 13 -40 14 -25 32 16 19 24 19 17 1z m-72 -6 c3
-5 -1 -10 -10 -10 -9 0 -13 5 -10 10 3 6 8 10 10 10 2 0 7 -4 10 -10z m722
-206 c-3 -3 -12 -4 -19 -1 -8 3 -5 6 6 6 11 1 17 -2 13 -5z m56 -11 c-7 -2
-19 -2 -25 0 -7 3 -2 5 12 5 14 0 19 -2 13 -5z m312 -103 c3 -6 -1 -7 -9 -4
-18 7 -21 14 -7 14 6 0 13 -4 16 -10z m128 -57 c-7 -2 -19 -2 -25 0 -7 3 -2 5
12 5 14 0 19 -2 13 -5z m-1108 -373 c197 -17 216 -24 235 -91 16 -54 13 -59
-27 -59 -53 0 -105 -39 -133 -102 -19 -42 -23 -70 -24 -142 -1 -106 11 -136
53 -136 36 0 51 18 58 70 7 52 23 52 23 -1 0 -97 -33 -142 -90 -124 -21 7 -21
6 -6 -23 11 -21 25 -32 43 -34 26 -3 26 -3 8 -22 -18 -18 -32 -19 -235 -13
-118 4 -252 7 -297 7 l-82 0 -4 58 -3 57 -2 -62 c-2 -59 -1 -63 21 -64 12 0
143 -4 292 -8 148 -4 285 -4 302 0 24 5 33 3 33 -6 0 -8 -21 -14 -57 -17 -96
-8 -685 9 -725 21 -22 7 -46 25 -60 44 -21 29 -23 46 -26 161 -3 110 -1 131
12 138 20 11 21 29 1 21 -13 -4 -15 2 -9 38 8 55 8 54 47 58 7 0 25 13 40 27
22 20 27 32 22 51 -4 16 2 36 16 59 12 19 19 37 16 40 -9 10 -40 -46 -52 -94
-11 -43 -15 -47 -44 -48 -30 -1 -32 0 -26 30 15 75 36 134 53 149 10 9 36 21
58 26 44 12 384 6 569 -9z m-791 1 c7 -11 -22 -23 -36 -15 -6 4 -5 10 3 15 18
11 26 11 33 0z m1895 -67 c36 -7 38 -20 15 -86 l-15 -46 -62 -7 c-83 -8 -115
-22 -132 -56 -34 -64 -3 -174 57 -205 46 -24 111 -28 145 -11 37 20 56 48 73
112 20 75 41 125 52 125 6 0 17 -8 24 -17 12 -16 13 -16 14 -2 1 49 -57 151
-99 175 -25 14 -24 14 24 8 28 -3 66 -9 85 -13 l35 -7 0 -109 c0 -135 -21
-259 -41 -251 -16 6 -19 -20 -3 -29 14 -9 1 -181 -17 -217 l-14 -27 -142 6
c-79 3 -161 9 -183 12 l-40 7 1 72 c0 40 -3 67 -8 60 -4 -7 -8 -43 -8 -79 0
-62 2 -67 24 -73 13 -3 125 -11 247 -17 123 -5 226 -13 229 -16 3 -3 -103 -3
-235 0 -319 7 -384 23 -408 102 -19 62 -15 454 6 525 12 44 13 51 1 36 -16
-23 -19 -14 -4 15 10 18 23 19 179 19 93 0 183 -3 200 -6z m478 -69 c87 -39
90 -53 63 -281 -27 -235 -47 -287 -123 -319 -35 -14 -147 -21 -147 -9 0 3 24
30 52 60 94 96 104 193 27 267 l-30 28 16 71 c11 49 14 93 10 145 l-7 75 44
-7 c24 -4 67 -17 95 -30z m-2372 -39 l-7 -55 -44 -7 c-24 -3 -53 -4 -64 -1
-11 3 -20 2 -20 -3 0 -4 -10 -10 -22 -13 -12 -4 -20 -9 -17 -12 4 -3 38 1 78
10 40 8 76 15 81 15 4 0 10 -84 12 -187 3 -172 5 -192 26 -235 33 -67 88 -97
200 -108 122 -13 689 -12 751 1 44 9 54 16 85 62 48 70 74 166 86 317 5 69 13
135 16 148 10 37 49 49 132 43 82 -7 99 5 20 13 -114 13 -120 14 -41 11 54 -2
89 -8 105 -19 15 -11 17 -16 8 -16 -13 0 -13 -2 -1 -9 11 -7 16 -50 22 -178
13 -268 33 -343 104 -384 39 -23 153 -38 343 -46 176 -7 164 5 131 -132 -34
-142 -93 -277 -110 -250 -4 7 -1 19 7 26 8 8 14 19 14 26 0 6 -7 2 -16 -9 -15
-18 -15 -18 -9 4 7 23 6 23 -24 8 -16 -9 -32 -16 -34 -16 -2 0 -20 20 -40 45
-49 64 -183 181 -244 214 -62 34 -171 63 -233 62 -25 0 -83 -7 -130 -16 -109
-19 -137 -19 -90 2 19 9 67 18 107 22 69 6 71 7 57 26 -24 32 -103 25 -194
-18 -41 -19 -86 -38 -100 -42 -68 -20 -186 -93 -255 -157 -41 -39 -75 -65 -75
-59 0 21 -28 11 -34 -12 -3 -13 -17 -29 -31 -35 -24 -11 -25 -10 -19 13 9 35
-11 31 -26 -5 -7 -16 -16 -30 -20 -30 -5 0 -16 -3 -26 -7 -14 -5 -16 -2 -12
15 4 12 2 22 -4 22 -5 0 -12 -9 -15 -20 -5 -21 -32 -24 -45 -5 -4 5 -13 -4
-20 -20 -16 -36 -35 -42 -54 -18 -13 17 -13 17 -14 1 0 -10 -4 -18 -9 -18 -5
0 -11 8 -14 18 -3 14 -6 13 -14 -8 l-11 -25 -7 30 c-11 49 -14 55 -25 55 -5 0
-10 -10 -10 -22 -1 -13 -7 -34 -14 -47 l-14 -25 -13 22 c-8 12 -19 22 -26 22
-7 0 -13 9 -13 20 0 19 -6 22 -57 24 -20 1 -53 37 -53 57 0 8 -7 3 -16 -9 -13
-18 -19 -21 -30 -11 -8 6 -14 17 -14 23 -1 12 -35 56 -44 56 -3 0 -6 -10 -6
-22 0 -20 -2 -20 -15 -8 -7 8 -20 33 -28 55 -7 22 -18 39 -24 38 -6 -1 -13 11
-17 27 -3 17 -12 30 -20 30 -8 0 -17 6 -19 13 -6 14 -10 -25 -7 -63 5 -57 -11
-7 -24 76 -14 88 -14 88 -15 32 -1 -61 -16 -78 -27 -30 -3 15 -10 40 -15 56
-12 37 -12 36 7 36 8 0 13 4 9 10 -12 19 -35 -3 -36 -34 -1 -73 -28 74 -39
214 -15 193 -10 352 10 357 10 3 11 2 3 -4 -6 -5 -11 -27 -10 -49 2 -41 10
-46 42 -24 6 3 38 15 73 26 34 10 62 22 62 26 0 12 -48 10 -55 -2 -9 -15 -25
-12 -25 5 0 9 10 16 28 16 l27 2 -28 4 c-20 3 -27 9 -23 19 3 9 -1 14 -12 14
-9 1 -1 8 18 17 41 18 253 83 258 78 2 -2 1 -28 -3 -59z m-711 -15 c68 -39
140 -120 161 -181 17 -46 32 -251 17 -216 -5 11 -8 34 -7 52 0 18 -3 30 -7 28
-13 -8 -9 31 5 45 10 11 10 13 0 7 -8 -4 -13 -2 -13 6 -1 7 -6 3 -13 -10 -13
-23 -13 -23 -31 -3 -10 11 -15 25 -10 32 4 8 3 10 -4 5 -7 -4 -12 -2 -12 3 0
6 -5 11 -11 11 -6 0 -28 13 -48 29 -48 39 -170 75 -218 66 -102 -19 -144 -166
-82 -287 47 -93 122 -187 181 -228 32 -22 63 -40 68 -40 14 0 53 -54 41 -58
-15 -5 -14 -29 2 -35 6 -3 -7 -3 -31 -1 -73 8 -136 44 -232 132 -87 79 -146
167 -161 240 -16 80 -6 227 19 283 18 39 55 81 104 118 68 51 194 52 282 2z
m1691 -61 c5 -20 2 -17 -15 10 -30 48 -30 47 -46 26 -8 -11 -14 -15 -14 -8 0
6 10 18 22 26 21 15 23 15 34 -7 6 -12 15 -33 19 -47z m-49 -40 c14 -57 10
-66 -37 -90 -47 -25 -49 -25 -49 0 0 11 5 20 10 20 6 0 10 9 10 20 0 17 3 18
25 8 31 -14 47 -1 21 17 -10 8 -23 16 -28 17 -5 2 -6 16 -3 31 11 43 38 30 51
-23z m1541 -27 c-3 -10 -5 -4 -5 12 0 17 2 24 5 18 2 -7 2 -21 0 -30z m-653
-28 c37 -16 50 -50 22 -61 -18 -7 -79 24 -71 36 3 5 1 11 -5 15 -11 7 -4 25 9
25 5 0 25 -7 45 -15z m643 -72 c-2 -16 -4 -3 -4 27 0 30 2 43 4 28 2 -16 2
-40 0 -55z m-1581 -29 l6 -25 26 23 25 23 -7 -30 c-7 -29 -32 -65 -46 -65 -7
0 -30 68 -30 89 0 22 20 11 26 -15z m1366 -39 c22 -49 -23 -145 -68 -145 -22
0 -18 60 4 61 16 1 16 2 0 6 -20 5 -24 42 -9 71 5 9 12 25 15 35 5 15 9 16 26
7 12 -6 26 -22 32 -35z m198 -81 c-17 -82 -22 -60 -7 37 8 56 13 73 15 51 2
-18 -2 -58 -8 -88z m-165 4 c-15 -55 -28 -75 -55 -92 -41 -24 -38 -2 5 38 19
19 35 43 35 55 0 11 5 21 11 21 6 0 8 -9 4 -22z m140 -99 c-7 -26 -29 -56 -60
-79 -11 -8 -5 2 12 23 18 20 36 49 39 63 4 14 8 23 11 21 2 -3 1 -15 -2 -28z
m-1270 -529 c-3 -6 5 -10 18 -10 16 0 26 -7 30 -19 5 -21 -28 -35 -118 -51
-38 -6 -22 -8 65 -5 128 5 183 13 174 27 -3 5 5 6 18 4 12 -3 34 -8 48 -11 63
-12 100 -30 101 -50 0 -11 3 -14 6 -7 7 18 20 15 26 -7 3 -15 1 -18 -11 -13
-19 7 18 -50 55 -85 26 -25 53 -91 53 -129 0 -25 -19 -24 -51 2 -14 12 -15 10
-11 -16 7 -46 -16 -36 -26 13 l-10 42 -1 -43 c-1 -25 -5 -41 -11 -37 -5 3 -12
-6 -16 -20 -9 -36 -20 -31 -45 18 -31 60 -95 152 -127 183 -79 76 -223 101
-312 55 -115 -60 -164 -127 -175 -241 -7 -73 -22 -110 -43 -110 -7 0 -16 9
-19 19 -4 16 -9 18 -30 10 -34 -13 -33 -13 -26 21 7 37 -4 39 -17 4 -6 -14
-14 -23 -19 -20 -5 3 -11 -1 -15 -9 -8 -22 -25 -18 -19 4 6 25 -13 35 -66 36
-39 0 -46 3 -51 25 -4 17 -8 21 -14 12 -12 -20 -35 -14 -29 8 3 12 -1 22 -11
26 -23 9 -20 18 15 58 18 21 36 33 45 29 8 -3 14 0 14 6 0 6 4 11 9 11 5 0 37
27 72 60 35 33 67 60 71 60 4 0 5 6 2 14 -3 8 -1 17 5 21 6 3 11 1 11 -6 0 -8
4 -8 15 1 13 11 13 15 3 22 -9 7 -7 8 8 5 12 -2 28 -1 35 4 12 8 12 11 -1 18
-10 7 -3 9 23 7 20 -2 34 0 32 4 -3 5 18 8 46 8 28 1 57 6 64 12 12 10 39 16
88 19 10 0 16 5 13 10 -3 4 18 9 46 10 28 0 53 3 56 6 9 9 13 5 7 -5z m228
-37 c-7 -2 -19 -2 -25 0 -7 3 -2 5 12 5 14 0 19 -2 13 -5z m-896 -1130 c-3
-10 -5 -4 -5 12 0 17 2 24 5 18 2 -7 2 -21 0 -30z m-1087 -13 c0 -6 -47 -10
-120 -10 -73 0 -120 4 -120 10 0 6 47 10 120 10 73 0 120 -4 120 -10z"/>
<path d="M2844 3046 c11 -9 24 -16 30 -16 12 0 7 5 -24 19 -24 11 -24 11 -6
-3z"/>
<path d="M1575 2880 c-3 -5 -1 -10 4 -10 6 0 11 5 11 10 0 6 -2 10 -4 10 -3 0
-8 -4 -11 -10z"/>
<path d="M2485 2769 c-16 -5 -113 -20 -215 -35 -210 -29 -270 -49 -294 -97
-14 -30 -14 -33 5 -52 19 -19 33 -20 342 -20 l322 0 1 58 c1 31 -2 57 -7 57
-5 0 -9 7 -9 15 0 8 -4 15 -10 15 -5 0 -10 8 -10 18 0 41 -61 61 -125 41z"/>
<path d="M3395 2740 c7 -23 0 -24 -44 -9 -28 10 -35 8 -66 -16 -39 -29 -85
-110 -85 -149 0 -31 7 -32 307 -47 221 -11 244 -10 268 5 31 21 33 56 3 83
-41 37 -102 61 -219 87 -79 18 -120 33 -132 46 -22 26 -40 26 -32 0z"/>
<path d="M2373 2369 c-4 -29 -15 -55 -23 -60 -8 -4 -55 -11 -105 -16 -88 -8
-89 -8 -109 -43 -26 -44 -26 -126 0 -172 23 -40 94 -78 144 -78 45 0 115 32
129 58 6 12 11 48 11 81 0 34 4 61 9 61 5 0 23 13 40 29 23 22 31 38 31 64 0
59 -19 98 -56 113 -55 23 -62 19 -71 -37z m-99 -225 c39 -6 46 -10 46 -29 0
-13 -7 -26 -16 -29 -47 -18 -104 7 -104 46 0 20 6 21 74 12z"/>
<path d="M1889 2389 c-6 -4 -12 -20 -13 -37 0 -17 -4 -28 -8 -25 -5 2 -8 -5
-8 -15 0 -11 -3 -33 -6 -50 -6 -28 -5 -30 17 -24 18 5 20 7 7 10 -16 3 -16 6
-1 40 8 20 20 45 25 55 5 10 6 21 4 26 -5 8 9 11 52 12 13 1 21 4 17 7 -9 9
-72 10 -86 1z"/>
<path d="M2387 1826 c-4 -38 -6 -71 -3 -73 6 -7 19 101 14 123 -2 11 -7 -12
-11 -50z"/>
<path d="M1978 1743 c7 -3 16 -2 19 1 4 3 -2 6 -13 5 -11 0 -14 -3 -6 -6z"/>
<path d="M1552 2221 c-11 -6 -10 -10 4 -15 9 -3 19 -4 22 -1 3 3 -1 5 -9 5
-11 0 -11 2 1 10 8 5 11 10 5 10 -5 0 -16 -4 -23 -9z"/>
<path d="M1551 1683 c-1 -12 4 -25 9 -28 12 -7 12 2 0 30 -8 19 -9 19 -9 -2z"/>
<path d="M1850 1335 c0 -8 2 -15 4 -15 2 0 6 7 10 15 3 8 1 15 -4 15 -6 0 -10
-7 -10 -15z"/>
<path d="M1130 1975 c0 -8 5 -15 10 -15 6 0 10 7 10 15 0 8 -4 15 -10 15 -5 0
-10 -7 -10 -15z"/>
<path d="M691 1840 c0 -8 4 -24 9 -35 5 -13 9 -14 9 -5 0 8 -4 24 -9 35 -5 13
-9 14 -9 5z"/>
<path d="M2728 1133 c7 -3 16 -2 19 1 4 3 -2 6 -13 5 -11 0 -14 -3 -6 -6z"/>
<path d="M2240 919 c0 -5 5 -7 10 -4 6 3 10 8 10 11 0 2 -4 4 -10 4 -5 0 -10
-5 -10 -11z"/>
<path d="M2981 4487 c2 -1 13 -9 24 -17 19 -14 19 -14 6 3 -7 9 -18 17 -24 17
-6 0 -8 -1 -6 -3z"/>
<path d="M17 2576 c-14 -11 -17 -30 -17 -125 l0 -111 35 -17 c39 -19 38 -28
-5 -36 -25 -5 -29 -11 -28 -32 2 -16 7 -24 15 -21 7 3 13 1 13 -4 0 -6 -7 -10
-15 -10 -12 0 -15 -14 -15 -70 0 -80 -1 -79 86 -54 29 8 73 14 96 12 41 -3 38
-4 -47 -26 -50 -12 -100 -25 -113 -28 l-23 -7 3 -335 3 -335 40 -14 c58 -20
71 -39 84 -122 7 -42 23 -96 38 -123 27 -49 94 -119 126 -131 13 -5 16 -13 12
-27 -17 -53 33 -91 118 -92 38 0 54 5 64 18 12 16 15 17 24 4 5 -8 8 -26 7
-40 -4 -45 7 -50 110 -51 137 -2 152 -6 176 -54 14 -26 29 -41 44 -43 38 -6
24 -22 -18 -22 -38 0 -52 -12 -29 -25 6 -4 14 -17 19 -29 7 -17 9 -17 9 -3 1
13 10 17 39 17 32 0 41 -5 50 -25 16 -34 15 -35 -8 -35 -11 0 -20 5 -20 10 0
6 -8 10 -17 9 -11 0 -13 -3 -5 -6 6 -2 12 -9 12 -14 0 -15 -22 -10 -37 9 -13
16 -14 15 -9 -8 24 -111 31 -130 45 -126 38 11 85 10 88 -1 5 -15 -38 -27 -72
-21 -30 6 -32 -12 -7 -87 l17 -50 47 1 c26 0 51 4 55 8 5 4 8 42 7 85 -1 97
-60 275 -110 335 -18 21 -36 52 -40 70 -4 17 -13 45 -22 63 -14 30 -16 31 -67
26 l-53 -6 -11 68 c-18 101 -38 135 -104 171 -26 14 -33 14 -75 0 -64 -22
-113 -20 -141 5 -33 31 -41 61 -41 160 0 103 -7 95 114 123 38 9 71 18 74 20
4 5 -19 161 -53 341 -13 72 -26 155 -30 185 -13 106 -45 227 -67 246 -16 15
-38 19 -102 20 l-81 2 -3 38 c-2 21 -7 43 -11 49 -5 5 -11 24 -15 40 -4 17
-17 40 -28 52 -12 13 -20 25 -17 27 2 2 37 7 77 11 62 6 72 5 72 -9 0 -9 7
-16 16 -16 12 0 15 6 11 23 -3 12 -9 38 -12 58 l-7 35 -71 -8 c-84 -10 -97 -7
-97 26 0 42 -64 61 -103 32z m123 -216 c12 -8 12 -10 -3 -16 -9 -3 -25 -3 -34
2 -10 4 -22 6 -26 5 -5 -1 -6 3 -2 9 8 12 45 13 65 0z m20 -95 c-1 -17 -40 36
-40 54 0 10 7 6 20 -14 11 -16 20 -34 20 -40z m-70 -55 c11 -8 7 -9 -15 -4
-37 8 -45 14 -19 14 10 0 26 -5 34 -10z m90 -209 c0 -21 -124 -48 -149 -32 -9
6 12 13 65 24 44 8 80 15 82 16 1 0 2 -3 2 -8z m430 -930 c0 -8 -79 -3 -89 5
-2 2 17 4 42 4 26 0 47 -4 47 -9z m330 -525 c0 -16 -22 -26 -56 -26 -16 0 -24
6 -24 18 0 14 9 18 40 19 28 1 40 -2 40 -11z m30 -182 c0 -8 -5 -12 -10 -9 -6
4 -8 11 -5 16 9 14 15 11 15 -7z"/>
<path d="M611 1304 c0 -11 3 -14 6 -6 3 7 2 16 -1 19 -3 4 -6 -2 -5 -13z"/>
<path d="M548 1263 c7 -3 16 -2 19 1 4 3 -2 6 -13 5 -11 0 -14 -3 -6 -6z"/>
<path d="M4039 839 c-15 -17 -60 -94 -100 -172 -39 -78 -82 -157 -96 -175 -30
-40 -26 -52 7 -17 30 32 35 31 50 -5 10 -24 10 -36 0 -60 -20 -47 -16 -104 9
-135 16 -22 20 -36 15 -66 -8 -47 3 -53 124 -68 46 -6 88 -13 93 -16 5 -4 9
-33 9 -66 l0 -59 75 0 75 0 0 44 c0 25 5 48 11 51 6 4 8 13 5 20 -4 10 18 15
95 21 65 4 105 12 115 21 7 8 21 40 30 71 9 31 23 61 30 65 9 5 14 28 14 67 0
47 -3 59 -17 62 -13 2 -21 31 -39 126 -17 94 -29 133 -50 163 -36 52 -97 107
-129 115 -34 8 -65 -19 -65 -58 0 -27 -1 -28 -55 -28 l-54 0 -21 47 c-40 91
-80 107 -131 52z m71 -56 c0 -15 -2 -16 -10 -3 -7 12 -10 8 -10 -15 0 -40 -10
-75 -21 -75 -10 0 -12 93 -2 103 13 14 43 7 43 -10z m286 -29 c19 -5 50 -51
41 -60 -2 -2 -41 -4 -88 -4 -46 1 -99 0 -116 0 -18 0 -33 4 -33 10 0 5 -7 10
-15 10 -8 0 -15 4 -15 8 0 4 43 8 95 7 84 0 95 2 95 18 0 18 4 20 36 11z m-57
-131 c-8 -8 -9 -45 -4 -113 l7 -100 -61 0 -61 0 0 89 c0 78 2 90 18 91 70 4
82 6 82 13 0 4 -35 8 -77 9 -43 0 -82 2 -88 3 -5 2 -17 4 -25 6 -8 2 32 5 90
8 58 4 111 6 117 7 9 0 10 -3 2 -13z m137 -20 c1 -18 -2 -33 -5 -33 -9 0 -7
-93 2 -107 5 -8 3 -13 -4 -13 -9 0 -9 -3 0 -14 10 -12 3 -15 -41 -18 -29 -2
-54 -4 -54 -4 -1 1 -5 49 -9 108 -8 120 -9 118 70 115 38 -2 40 -4 41 -34z
m-373 20 c-7 -2 -21 -2 -30 0 -10 3 -4 5 12 5 17 0 24 -2 18 -5z m352 -383
c-7 -11 -282 -7 -293 4 -3 3 63 6 147 6 101 0 150 -3 146 -10z"/>
<path d="M4410 580 c6 -11 15 -20 20 -20 6 0 11 -8 11 -17 1 -10 5 -4 8 12 9
35 3 53 -11 34 -7 -11 -11 -11 -15 -1 -2 6 -9 12 -14 12 -6 0 -5 -8 1 -20z"/>
<path d="M4416 484 c-4 -9 -4 -19 -1 -22 3 -3 5 -2 5 3 0 4 7 2 15 -5 21 -17
29 -7 15 19 -13 25 -26 27 -34 5z"/>
<path d="M3955 33 c-23 -22 -18 -33 15 -33 17 0 30 2 30 4 0 2 3 11 6 19 7 20
-33 29 -51 10z"/>
<path d="M4448 3 c6 -2 18 -2 25 0 6 3 1 5 -13 5 -14 0 -19 -2 -12 -5z"/>
</g>
</svg>
