<?xml version="1.0" standalone="no"?>
<!DOCTYPE svg PUBLIC "-//W3C//DTD SVG 20010904//EN"
 "http://www.w3.org/TR/2001/REC-SVG-20010904/DTD/svg10.dtd">
<svg version="1.0" xmlns="http://www.w3.org/2000/svg"
 width="600.000000pt" height="600.000000pt" viewBox="0 0 600.000000 600.000000"
 preserveAspectRatio="xMidYMid meet">

<g transform="translate(0.000000,600.000000) scale(0.100000,-0.100000)"
fill="#000000" stroke="none">
<path d="M5954 5638 c3 -200 11 -626 17 -948 6 -322 14 -785 18 -1030 6 -336
8 -104 9 948 l2 1392 -27 0 -26 0 7 -362z"/>
<path d="M2808 5594 c-5 -4 -8 -16 -8 -26 0 -21 -36 -25 -43 -5 -4 10 -7 10
-18 0 -7 -7 -21 -13 -32 -13 -10 0 -25 -7 -34 -15 -18 -19 -49 -15 -45 5 2 10
0 11 -10 2 -7 -6 -27 -12 -43 -14 -27 -3 -30 0 -27 21 4 23 3 23 -30 -8 -18
-17 -37 -31 -43 -31 -5 0 -3 5 5 10 8 5 12 10 7 10 -8 0 -49 -22 -57 -31 -3
-3 -23 -13 -45 -23 -22 -10 -56 -26 -76 -36 -20 -10 -68 -22 -105 -25 -38 -4
-70 -11 -72 -16 -2 -5 -12 -9 -22 -9 -10 0 -22 -4 -25 -10 -3 -5 -22 -10 -42
-10 -56 0 -149 -51 -200 -110 -12 -14 -22 -19 -23 -12 0 16 -20 16 -20 -1 0
-21 -37 -50 -54 -44 -9 4 -18 2 -21 -3 -3 -4 1 -11 7 -13 7 -3 3 -6 -9 -6 -12
-1 -25 -5 -28 -11 -3 -5 -31 -10 -61 -10 -71 0 -104 -32 -104 -99 0 -39 -15
-65 -62 -109 -21 -19 -38 -44 -38 -55 0 -11 -3 -17 -7 -14 -3 4 -14 -11 -24
-33 -10 -23 -26 -48 -34 -57 -9 -8 -14 -22 -11 -29 3 -8 1 -14 -4 -14 -6 0
-10 -11 -10 -23 0 -13 -9 -32 -20 -42 -11 -10 -20 -23 -20 -29 0 -22 -52 -85
-66 -79 -8 3 -14 -1 -14 -11 0 -9 -4 -16 -10 -16 -5 0 -7 -7 -4 -15 4 -8 -1
-30 -9 -48 -24 -50 -33 -155 -15 -170 16 -13 41 -114 40 -162 0 -16 3 -34 7
-40 5 -5 18 -68 30 -140 42 -246 58 -330 71 -360 4 -11 14 -36 20 -55 39 -110
55 -133 87 -129 3 0 10 -6 15 -14 11 -21 -2 -133 -13 -115 -17 27 -9 -17 10
-55 10 -20 15 -34 10 -31 -5 3 -9 1 -9 -5 0 -5 4 -12 9 -15 5 -3 11 -29 15
-58 14 -122 19 -144 37 -159 11 -9 19 -28 19 -41 0 -32 20 -89 36 -106 16 -15
35 -82 28 -94 -3 -4 0 -8 5 -8 6 0 11 -13 11 -29 0 -17 5 -33 10 -36 6 -3 10
-23 10 -43 0 -21 7 -47 15 -58 8 -12 16 -37 18 -55 2 -19 11 -48 20 -66 10
-18 17 -41 17 -53 0 -11 4 -20 9 -20 6 0 8 -9 6 -20 -3 -13 0 -18 7 -14 7 5 9
1 5 -9 -3 -10 -2 -17 3 -17 6 0 10 -11 10 -25 0 -16 6 -25 15 -25 8 0 15 -6
15 -13 0 -7 13 -37 30 -67 16 -30 37 -71 46 -90 18 -38 70 -117 92 -139 7 -8
11 -24 8 -36 -4 -15 1 -28 17 -41 l22 -19 -19 23 c-11 12 -16 25 -12 29 4 5
12 0 17 -10 6 -9 20 -27 33 -40 32 -32 31 -79 -5 -169 -17 -43 -29 -83 -27
-89 2 -7 12 10 23 37 18 47 65 131 50 89 -4 -11 -10 -29 -13 -40 -3 -11 -14
-35 -24 -53 -10 -18 -18 -41 -18 -51 0 -10 -3 -21 -7 -25 -11 -10 -33 -79 -33
-101 0 -12 -5 -26 -10 -31 -6 -6 -13 -60 -15 -120 -7 -143 -13 -185 -30 -182
-8 2 -14 0 -14 -4 -2 -23 0 -29 9 -23 5 3 10 2 10 -3 0 -6 20 -23 43 -38 35
-22 43 -32 41 -52 -3 -25 30 -71 50 -72 5 0 15 -8 22 -18 7 -9 17 -18 23 -18
22 -3 23 -4 11 -19 -10 -12 -10 -15 3 -15 8 0 18 -8 21 -17 5 -12 9 -14 18 -5
7 7 17 12 22 12 6 0 5 -4 -3 -9 -13 -8 -13 -12 0 -28 13 -16 13 -17 -4 -4 -9
7 -17 9 -17 5 0 -9 47 -64 55 -64 2 0 2 29 1 65 -2 36 1 65 6 65 5 0 6 5 2 11
-3 6 -14 9 -23 6 -14 -3 -17 3 -17 33 1 21 4 36 7 34 9 -5 20 37 13 48 -3 4
-11 8 -18 8 -8 0 -16 10 -20 23 -9 32 -8 34 14 40 11 3 18 1 14 -4 -10 -17 12
-9 36 13 l23 22 29 -34 c15 -19 28 -40 28 -46 0 -7 3 -14 8 -16 4 -1 18 -23
32 -48 25 -47 110 -163 123 -168 4 -2 7 -8 7 -14 0 -5 12 -27 28 -49 27 -38
52 -51 52 -26 0 15 -34 71 -60 100 -11 11 -20 27 -20 34 0 7 -4 13 -9 13 -5 0
-16 15 -24 32 -9 18 -27 48 -41 67 -14 19 -28 51 -32 70 -3 20 -15 56 -26 81
-11 25 -24 54 -28 65 -4 11 -15 37 -25 58 -25 58 -42 134 -50 222 -4 44 -9 89
-11 100 -2 10 2 23 9 27 9 6 9 8 0 8 -7 0 -13 5 -13 10 0 6 8 5 19 -2 11 -7
18 -15 15 -19 -2 -4 0 -10 6 -14 5 -3 17 -22 26 -41 10 -21 22 -33 30 -30 7 3
25 -6 41 -20 59 -51 71 -57 53 -24 -8 16 -8 18 4 14 8 -3 21 -20 30 -37 8 -18
16 -25 16 -17 0 8 11 20 24 26 22 10 26 7 51 -32 28 -44 38 -55 30 -31 -8 21
11 41 31 32 11 -5 22 -7 27 -7 4 1 7 -4 7 -12 0 -11 6 -12 33 -2 17 6 38 15
45 19 7 5 12 3 12 -3 0 -8 9 -10 24 -6 15 4 27 1 30 -7 4 -6 4 -2 2 9 -3 17 1
20 16 16 11 -3 17 -10 14 -18 -6 -16 -1 -17 23 -5 12 7 26 6 42 -3 14 -7 56
-15 95 -19 38 -3 83 -13 99 -21 17 -9 34 -16 40 -16 19 0 105 -65 101 -76 -6
-16 14 -34 36 -34 10 0 18 -4 18 -10 0 -5 9 -10 20 -10 11 0 20 -7 20 -15 0
-9 6 -12 18 -8 14 5 15 3 5 -8 -17 -18 -16 -32 1 -26 10 4 13 1 9 -9 -3 -7 0
-14 5 -14 6 0 14 9 17 20 3 11 10 20 14 20 4 0 18 10 31 22 23 21 66 33 74 20
5 -8 -17 -128 -34 -187 -6 -22 -11 -48 -11 -57 0 -9 -7 -19 -15 -22 -8 -3 -14
-19 -14 -39 0 -36 35 -76 139 -156 58 -45 71 -43 71 11 0 17 5 27 12 25 7 -1
18 18 26 43 8 25 30 77 48 115 19 39 34 75 34 81 0 14 60 64 77 64 25 0 53
-20 53 -39 0 -27 21 -81 31 -81 12 0 11 37 -1 45 -5 3 -10 13 -10 22 0 11 6
14 26 9 17 -5 23 -3 19 4 -4 6 10 10 37 10 56 0 136 29 144 52 7 23 22 23 26
1 2 -11 10 3 20 32 l17 50 0 -45 c1 -34 -2 -41 -10 -30 -7 11 -9 4 -4 -25 3
-22 1 -89 -5 -150 -6 -60 -15 -150 -20 -200 -11 -114 -29 -262 -35 -295 -6
-35 29 -77 50 -60 8 7 15 21 15 31 0 11 4 27 9 37 37 74 51 106 51 118 0 8 3
14 8 14 14 0 27 65 22 106 -4 29 -18 55 -48 89 -37 42 -42 54 -42 96 0 26 4
51 10 54 6 3 10 13 10 21 0 8 22 37 49 64 35 35 60 51 87 56 22 4 48 13 59 20
11 8 34 14 51 14 17 0 37 7 44 15 7 9 21 13 30 10 11 -3 20 1 23 10 4 8 13 12
21 9 11 -4 14 3 13 30 -1 21 -6 35 -11 33 -6 -2 -10 -14 -8 -25 5 -31 -15 -28
-20 3 -3 14 -1 25 6 25 6 0 4 4 -4 9 -20 14 -28 5 -23 -26 3 -25 2 -26 -6 -6
-10 23 -44 38 -61 28 -6 -4 -9 -1 -8 7 2 8 -8 14 -24 16 -16 2 -28 8 -28 13 0
24 118 -4 228 -53 26 -12 49 -22 52 -23 3 -1 23 -7 45 -14 91 -28 135 -39 129
-30 -3 5 -14 9 -24 9 -10 0 -21 4 -24 9 -3 4 -21 11 -40 14 -19 3 -51 13 -70
21 -44 20 -101 44 -141 61 -69 29 -145 65 -145 69 0 2 9 6 19 9 15 4 18 1 14
-12 -6 -14 -4 -14 13 1 11 9 40 20 64 24 61 8 144 31 207 56 45 17 51 23 43
38 -8 14 -29 19 -106 25 -143 11 -268 9 -272 -4 -2 -6 -8 -11 -14 -11 -5 0 -8
5 -6 12 8 22 -31 48 -71 48 -53 0 -68 20 -45 60 14 23 16 35 8 48 -22 34 -29
11 -32 -99 -2 -82 -6 -109 -15 -105 -7 3 -20 9 -30 12 -10 4 -20 19 -23 33 -4
18 -15 31 -35 38 -16 6 -29 18 -29 27 0 9 -4 16 -10 16 -5 0 -10 6 -10 14 0 7
-7 19 -15 26 -8 7 -12 16 -9 21 3 5 -2 9 -11 9 -9 0 -15 6 -13 14 2 8 -10 27
-27 43 -24 22 -30 37 -30 68 1 22 -8 55 -18 73 -11 18 -17 41 -14 52 3 11 2
20 -2 20 -4 0 -8 65 -7 144 0 79 -5 156 -11 172 -6 16 -15 38 -19 49 -4 11 -8
23 -8 27 -1 4 -7 13 -13 19 -7 7 -13 18 -13 24 0 10 -63 55 -77 55 -24 0 -83
23 -83 31 0 6 9 23 19 38 19 26 25 58 36 201 6 74 24 108 48 93 6 -3 7 -2 4 4
-3 5 10 15 30 22 71 26 91 57 113 180 5 26 20 87 34 136 22 82 25 107 24 275
0 160 -3 192 -20 240 -12 30 -25 61 -31 68 -6 7 -6 12 0 12 30 0 45 118 18
140 -9 8 -13 21 -9 32 3 10 2 24 -4 31 -12 16 -13 89 -1 103 5 7 5 32 -1 63
-6 35 -6 76 0 123 13 89 11 233 -2 273 -15 43 -60 139 -67 145 -19 15 -84 167
-87 203 -2 23 -8 43 -14 45 -5 2 -10 10 -10 17 0 7 -13 39 -30 70 -18 34 -30
72 -30 94 0 44 -25 75 -82 101 -22 9 -40 21 -41 26 -1 5 -8 8 -15 6 -7 -2 -15
4 -18 13 -3 8 -14 15 -23 15 -23 1 -51 24 -51 43 0 9 -10 22 -22 28 -20 10
-135 103 -148 120 -3 3 -17 9 -32 13 -16 3 -28 11 -28 16 0 6 -9 10 -20 10
-13 0 -20 7 -20 19 0 16 -46 45 -72 46 -3 0 -10 3 -14 8 -4 4 -15 7 -25 7 -9
0 -19 6 -22 13 -3 9 -7 9 -18 0 -15 -12 -42 -12 -91 2 -39 10 -34 45 7 45 26
1 28 2 12 11 -11 6 -33 8 -50 5 -18 -4 -41 -8 -52 -9 -11 -1 -25 -5 -31 -9
-17 -11 -24 2 -13 24 11 21 9 54 -3 42z m137 -134 c3 -5 -1 -10 -10 -10 -9 0
-13 5 -10 10 3 6 8 10 10 10 2 0 7 -4 10 -10z m-68 -36 c-3 -3 -12 -4 -19 -1
-8 3 -5 6 6 6 11 1 17 -2 13 -5z m-1676 -985 c-5 -13 -10 -19 -10 -12 -1 15
10 45 15 40 3 -2 0 -15 -5 -28z m970 -82 c45 -30 99 -57 116 -57 17 0 17 -37
1 -43 -7 -2 -10 -7 -6 -11 3 -4 17 0 31 9 24 15 26 15 46 -11 12 -15 21 -30
21 -35 0 -4 10 -7 23 -7 53 3 77 -2 77 -18 0 -18 17 -37 43 -47 9 -3 17 -11
17 -17 0 -13 29 -44 42 -46 4 -1 11 -2 14 -3 4 0 2 -7 -5 -14 -8 -10 -7 -17 1
-25 29 -29 -3 -99 -39 -85 -12 5 -18 -14 -14 -44 1 -7 -7 -13 -19 -13 -11 0
-20 5 -20 10 0 6 -6 10 -14 10 -18 0 -28 -40 -14 -57 16 -20 3 -26 -16 -7 -16
15 -18 15 -38 -7 l-20 -24 7 24 c5 17 4 22 -6 19 -8 -3 -15 -9 -15 -14 -5 -34
-19 -54 -36 -54 -11 0 -36 -8 -55 -17 -29 -13 -39 -14 -55 -4 -19 12 -62 6
-54 -8 6 -10 -36 -8 -53 3 -8 5 -16 4 -20 -3 -5 -7 -15 -9 -26 -5 -12 5 -16 4
-12 -3 5 -7 -7 -7 -39 -1 -35 8 -56 6 -97 -7 -28 -9 -53 -13 -54 -8 -5 15
-158 -4 -206 -25 -35 -16 -54 -33 -78 -72 -17 -28 -33 -49 -36 -46 -3 2 1 55
7 118 7 65 9 152 6 204 -7 97 2 247 14 239 4 -3 16 7 26 20 12 16 25 23 36 19
10 -3 18 -1 18 4 0 19 38 52 54 46 9 -4 18 0 22 9 3 8 30 25 60 37 30 13 60
30 67 39 15 20 70 23 62 3 -2 -7 0 -10 5 -7 6 3 10 -3 10 -14 0 -12 5 -21 10
-21 14 0 13 23 -2 38 -8 8 -8 15 1 26 13 15 68 12 104 -6 12 -6 17 -5 17 6 0
13 16 22 46 25 6 0 27 -9 45 -22z m359 -491 c0 -11 -19 -15 -25 -6 -3 5 1 10
9 10 9 0 16 -2 16 -4z m-203 -157 c1 -19 -1 -26 -3 -16 -3 9 -13 18 -22 18
-15 1 -15 2 1 6 19 5 23 19 7 26 -6 3 -5 4 2 3 7 -1 14 -18 15 -37z m7 -42
c20 4 30 -4 60 -48 20 -30 36 -58 36 -64 0 -6 9 -16 21 -23 17 -11 20 -22 18
-65 -1 -29 3 -62 9 -74 9 -16 9 -35 3 -65 -8 -32 -5 -66 8 -135 10 -51 14 -93
9 -93 -19 0 -7 -59 18 -85 25 -27 25 -27 6 -49 -87 -93 -88 -95 -84 -130 2
-19 -1 -43 -7 -53 -8 -14 -10 -14 -11 -3 0 15 -57 60 -76 60 -17 0 -78 -49
-90 -73 -15 -27 -4 -43 38 -52 16 -4 39 -16 49 -26 19 -19 19 -20 -6 -57 -14
-20 -25 -31 -25 -24 0 6 -9 12 -20 12 -11 0 -20 -6 -20 -13 0 -20 -61 -78 -79
-75 -9 1 -26 -6 -38 -17 -12 -10 -32 -20 -45 -22 -12 -2 -33 -11 -46 -19 -20
-13 -26 -14 -33 -3 -10 16 -11 15 -40 -41 -18 -36 -22 -58 -20 -110 1 -36 6
-69 10 -75 5 -5 11 -23 15 -38 5 -20 11 -27 22 -23 8 3 13 2 10 -2 -3 -5 1
-26 9 -48 8 -21 14 -54 15 -72 0 -29 -3 -33 -22 -30 -12 2 -28 14 -34 26 -8
17 -13 20 -17 10 -3 -7 -6 -4 -6 9 -1 12 -6 25 -11 28 -7 4 -9 -3 -5 -22 5
-21 4 -24 -4 -13 -6 8 -11 22 -11 31 0 9 -7 19 -15 23 -8 3 -15 12 -15 21 0 8
-4 15 -10 15 -5 0 -10 8 -10 19 0 10 -11 30 -25 45 -14 15 -25 32 -25 37 0 6
-5 7 -11 3 -8 -5 -10 1 -7 19 3 15 2 24 -2 22 -4 -3 -13 2 -20 11 -10 11 -15
12 -21 3 -8 -13 -32 34 -73 146 -15 39 -31 80 -36 93 -23 51 -29 70 -39 122
-6 30 -20 93 -31 140 -11 47 -25 110 -30 140 -6 30 -15 78 -20 105 -20 99 -23
176 -9 265 8 59 16 86 22 77 6 -8 7 -6 3 7 -4 10 -3 28 0 40 7 20 8 19 20 -9
l13 -30 1 28 c0 20 5 27 20 27 11 0 20 5 20 10 0 6 8 10 19 10 10 0 24 7 31
15 7 9 17 12 21 8 11 -11 -9 -85 -22 -78 -16 10 -15 -117 2 -145 5 -10 8 -11
9 -2 0 6 11 12 25 12 14 0 25 4 25 8 0 10 49 8 73 -2 9 -5 23 -4 30 0 6 5 28
9 47 9 35 0 35 0 32 -43 l-2 -42 62 6 c34 3 81 14 105 25 23 10 48 19 56 19
18 0 63 48 53 57 -4 4 -16 2 -26 -5 -16 -10 -20 -10 -20 1 0 19 21 37 42 37
12 0 18 7 18 21 0 11 5 17 10 14 6 -4 10 5 10 21 0 23 2 25 16 13 15 -12 16
-7 12 59 -3 39 -3 74 0 77 3 3 7 15 8 28 8 63 17 89 25 75 5 -10 18 -14 33
-11z m-577 -103 c-3 -3 -12 -4 -19 -1 -8 3 -5 6 6 6 11 1 17 -2 13 -5z m0 -20
c-3 -3 -12 -4 -19 -1 -8 3 -5 6 6 6 11 1 17 -2 13 -5z m26 -21 c4 -3 -5 -12
-19 -20 -34 -17 -34 -17 -34 7 0 14 7 20 23 20 13 0 27 -3 30 -7z m-106 -19
c-3 -3 -12 -4 -19 -1 -8 3 -5 6 6 6 11 1 17 -2 13 -5z m231 -117 c16 -18 15
-19 -13 -15 -25 2 -31 8 -33 32 -2 18 0 26 7 21 6 -3 12 0 12 7 1 7 4 4 6 -7
3 -11 12 -28 21 -38z m479 -633 c-3 -3 -12 -4 -19 -1 -8 3 -5 6 6 6 11 1 17
-2 13 -5z m-17 -29 c-7 -8 -14 -15 -15 -15 -2 0 -5 7 -9 15 -4 10 1 15 16 15
17 0 18 -2 8 -15z m-569 -438 c-13 -13 -26 -3 -16 12 3 6 11 8 17 5 6 -4 6
-10 -1 -17z m630 0 c48 19 68 8 47 -26 -7 -11 -17 -21 -22 -21 -6 0 -2 -6 9
-13 14 -11 16 -21 11 -50 -4 -21 -11 -37 -15 -37 -5 0 -11 -9 -14 -20 -6 -25
11 -26 29 -2 13 15 13 14 5 -9 -7 -19 -6 -26 4 -26 8 0 12 4 9 9 -3 4 -1 8 4
8 12 0 22 -24 22 -51 0 -15 8 -19 38 -21 20 0 45 0 55 0 20 2 47 -20 47 -37 0
-6 5 -11 10 -11 23 0 8 -21 -25 -34 -24 -11 -35 -21 -35 -36 0 -12 -4 -19 -9
-15 -6 3 -9 -7 -8 -22 2 -22 -3 -29 -20 -31 -13 -2 -23 1 -23 7 0 6 -4 11 -10
11 -5 0 -10 -9 -10 -19 0 -11 -5 -23 -11 -26 -6 -4 -9 0 -7 11 2 13 -3 19 -15
17 -12 0 -16 4 -13 13 3 9 -1 14 -13 14 -14 0 -18 -5 -14 -20 4 -14 -2 -23
-21 -31 -14 -7 -26 -16 -26 -21 0 -4 -4 -8 -10 -8 -16 0 -12 18 10 40 22 22
26 40 10 40 -5 0 -10 -7 -10 -16 0 -8 -4 -13 -9 -9 -6 3 -17 -10 -27 -30 -18
-39 -34 -46 -34 -14 0 11 -4 18 -9 15 -5 -4 -12 0 -14 6 -3 7 -6 4 -6 -7 -1
-16 -3 -17 -10 -5 -6 8 -7 18 -5 22 3 4 -2 8 -10 8 -9 0 -16 9 -16 20 0 11 -7
20 -15 20 -8 0 -15 9 -15 20 0 13 -5 18 -15 14 -13 -5 -14 -2 -5 20 11 30 8
32 -14 10 -15 -14 -17 -14 -23 2 -4 11 1 23 17 36 l24 19 -27 -6 c-17 -5 -27
-3 -27 4 0 6 -7 11 -15 11 -17 0 -20 16 -5 25 6 4 4 12 -5 21 -11 12 -14 32
-10 87 4 64 8 75 32 94 28 23 63 31 63 15 0 -5 6 -9 13 -9 6 0 48 -3 92 -7 44
-4 76 -3 70 1 -17 14 -34 50 -27 58 4 4 8 0 10 -9 3 -14 7 -14 43 1z m-595
-73 c1 -9 0 -13 -4 -10 -3 4 -7 14 -8 22 -1 9 0 13 4 10 3 -4 7 -14 8 -22z
m41 -46 c-3 -8 -6 -5 -6 6 -1 11 2 17 5 13 3 -3 4 -12 1 -19z m133 -179 c0
-16 -4 -28 -9 -25 -5 4 -8 14 -6 24 2 9 4 20 4 25 1 4 3 7 6 7 3 0 5 -14 5
-31z m637 -81 c-3 -7 -5 -2 -5 12 0 14 2 19 5 13 2 -7 2 -19 0 -25z m-396 -91
c-10 -9 -11 -8 -5 6 3 10 9 15 12 12 3 -3 0 -11 -7 -18z m1916 -494 c-3 -10
-5 -4 -5 12 0 17 2 24 5 18 2 -7 2 -21 0 -30z m-2177 -263 c0 -5 -4 -10 -10
-10 -5 0 -10 5 -10 10 0 6 5 10 10 10 6 0 10 -4 10 -10z m34 -37 c8 -21 -10
-41 -24 -27 -11 11 -3 44 10 44 4 0 11 -8 14 -17z m63 -35 c-3 -8 -6 -5 -6 6
-1 11 2 17 5 13 3 -3 4 -12 1 -19z m63 -112 c0 -2 -8 -10 -17 -17 -16 -13 -17
-12 -4 4 13 16 21 21 21 13z"/>
<path d="M2560 3980 c0 -5 5 -10 11 -10 5 0 7 5 4 10 -3 6 -8 10 -11 10 -2 0
-4 -4 -4 -10z"/>
<path d="M2208 3833 c6 -2 18 -2 25 0 6 3 1 5 -13 5 -14 0 -19 -2 -12 -5z"/>
<path d="M2167 2806 c-4 -10 0 -12 14 -9 22 6 26 23 5 23 -8 0 -16 -6 -19 -14z"/>
<path d="M2192 2779 c2 -7 10 -15 17 -17 8 -3 12 1 9 9 -2 7 -10 15 -17 17 -8
3 -12 -1 -9 -9z"/>
<path d="M2020 2059 c0 -11 4 -18 10 -14 5 3 7 12 3 20 -7 21 -13 19 -13 -6z"/>
<path d="M2575 1920 c-3 -5 -1 -10 4 -10 6 0 11 5 11 10 0 6 -2 10 -4 10 -3 0
-8 -4 -11 -10z"/>
<path d="M2570 1871 c0 -12 5 -21 10 -21 6 0 10 6 10 14 0 8 -4 18 -10 21 -5
3 -10 -3 -10 -14z"/>
<path d="M3006 5507 c3 -10 9 -15 12 -12 3 3 0 11 -7 18 -10 9 -11 8 -5 -6z"/>
<path d="M2040 5390 c-13 -8 -12 -10 3 -10 9 0 17 5 17 10 0 12 -1 12 -20 0z"/>
<path d="M1180 4284 c0 -10 5 -26 10 -34 8 -11 9 -7 4 15 -8 37 -14 45 -14 19z"/>
<path d="M2 1393 l-2 -1393 27 0 26 0 -7 362 c-3 200 -11 626 -17 948 -6 322
-14 785 -18 1030 -6 336 -8 104 -9 -947z"/>
<path d="M3950 1749 c0 -5 5 -7 10 -4 6 3 10 8 10 11 0 2 -4 4 -10 4 -5 0 -10
-5 -10 -11z"/>
<path d="M3950 1690 c0 -5 5 -10 11 -10 5 0 7 5 4 10 -3 6 -8 10 -11 10 -2 0
-4 -4 -4 -10z"/>
<path d="M4410 1241 c0 -8 41 -23 47 -17 2 1 -8 8 -22 14 -14 6 -25 8 -25 3z"/>
<path d="M1813 1145 c-13 -9 -35 -37 -50 -63 -15 -26 -30 -49 -33 -52 -3 -3
-11 -16 -19 -30 -13 -23 -13 -24 3 -11 16 13 17 12 13 -10 -2 -13 -2 -18 0
-11 4 10 8 10 19 1 12 -10 13 -9 7 7 -4 10 7 4 23 -15 29 -33 32 -34 112 -35
l81 -1 -38 40 c-44 45 -82 114 -90 163 -6 31 -7 32 -28 17z"/>
<path d="M1750 939 c0 -6 -7 -9 -15 -5 -16 6 -40 -28 -30 -43 3 -5 -2 -16 -10
-25 -14 -13 -12 -16 19 -21 38 -8 60 0 50 17 -5 7 -2 9 8 5 13 -4 14 -1 8 21
-4 15 -13 26 -19 24 -8 -2 -10 4 -6 18 3 11 4 20 1 20 -3 0 -6 -5 -6 -11z"/>
<path d="M3195 896 c-17 -17 -48 -44 -69 -61 -20 -16 -43 -34 -49 -40 -12 -10
-29 -19 -99 -49 -20 -9 -58 -19 -85 -23 -26 -3 -51 -11 -56 -17 -5 -7 -15 -1
-30 17 -23 27 -23 27 -68 13 -24 -9 -56 -18 -71 -21 -15 -3 -33 -12 -42 -20
-8 -8 -21 -15 -28 -16 -7 0 -2 -4 10 -10 13 -5 28 -6 33 -3 6 3 33 7 62 9 29
2 66 7 82 10 l30 6 -27 -16 c-16 -9 -28 -23 -28 -32 0 -9 -3 -14 -6 -10 -7 7
-21 -4 -77 -55 -21 -21 -45 -38 -53 -38 -8 0 -11 -6 -8 -15 5 -11 2 -13 -10
-9 -9 4 -16 1 -16 -6 0 -7 -6 -10 -14 -7 -19 8 -98 -17 -89 -28 4 -4 0 -5 -9
-2 -10 4 -18 2 -18 -4 0 -6 -4 -7 -10 -4 -5 3 -10 1 -10 -6 0 -7 -3 -9 -7 -6
-7 8 -53 -39 -53 -54 0 -6 -4 -7 -10 -4 -5 3 -10 -2 -11 -12 0 -16 -1 -16 -9
2 -8 19 -9 19 -9 -2 -1 -14 -7 -23 -16 -23 -8 0 -15 -4 -15 -9 0 -18 40 -4 73
26 27 24 42 31 62 27 15 -3 24 -1 21 4 -6 10 29 42 48 42 20 0 161 75 246 131
30 20 106 54 125 56 61 8 306 4 317 -5 12 -9 126 -27 248 -38 50 -5 172 17
177 32 1 5 -19 25 -45 44 -52 38 -91 71 -167 141 -55 51 -135 99 -165 99 -10
0 -20 4 -22 9 -1 4 -17 -6 -33 -23z"/>
<path d="M5920 725 c0 -11 53 -85 61 -85 5 0 9 -8 10 -17 0 -10 3 -13 5 -6 3
6 -11 34 -31 62 -35 48 -45 58 -45 46z"/>
<path d="M5813 708 c-6 -7 -13 -21 -16 -30 -4 -10 -15 -18 -26 -18 -10 0 -21
-8 -23 -18 -5 -18 13 -42 32 -42 5 0 10 -8 10 -18 0 -10 5 -23 10 -28 13 -13
2 -94 -12 -94 -5 0 -7 -4 -4 -9 7 -11 86 -6 95 6 9 14 40 23 45 14 3 -4 0 -26
-6 -49 -11 -46 -63 -87 -89 -71 -23 15 -28 10 -16 -15 7 -13 15 -22 19 -20 25
16 -8 -31 -71 -102 -10 -11 -24 -31 -31 -44 -7 -13 -23 -34 -36 -47 -13 -13
-24 -28 -24 -33 0 -5 18 10 40 33 l40 42 -25 -70 c-14 -38 -25 -76 -25 -82 0
-9 20 -13 69 -13 l70 0 -6 124 c-3 68 -3 132 1 142 15 38 27 -14 33 -141 l6
-125 25 0 25 0 -7 127 c-3 70 -11 132 -16 139 -6 6 -8 19 -4 28 4 10 1 16 -7
16 -11 0 -11 2 0 9 23 15 41 1 41 -30 0 -16 5 -29 10 -29 6 0 10 -11 10 -25 0
-14 4 -25 9 -25 5 0 11 -12 14 -27 22 -109 25 -89 26 145 1 182 -2 241 -11
236 -7 -5 -8 -3 -4 5 10 16 -22 51 -40 44 -12 -5 -19 7 -15 30 0 4 -6 7 -14 7
-9 0 -18 7 -21 15 -4 8 -15 15 -26 15 -11 0 -22 8 -25 20 -6 23 -16 25 -30 8z
m122 -308 c3 -5 1 -10 -4 -10 -6 0 -11 5 -11 10 0 6 2 10 4 10 3 0 8 -4 11
-10z"/>
<path d="M5478 595 c-44 -29 -109 -114 -128 -167 -8 -21 -18 -38 -22 -38 -4 0
-8 -7 -8 -15 0 -9 -6 -26 -14 -38 -14 -21 -32 -79 -43 -142 -3 -16 -9 -34 -13
-40 -4 -5 -11 -37 -15 -69 -4 -33 -9 -65 -12 -73 -4 -10 14 -13 85 -13 l89 0
6 198 c6 196 14 249 51 318 18 35 63 84 76 84 6 0 10 5 10 10 0 16 -22 11 -62
-15z"/>
<path d="M5676 595 c-9 -26 -7 -32 5 -12 6 10 9 21 6 23 -2 3 -7 -2 -11 -11z"/>
<path d="M2835 570 c-10 -11 -15 -20 -11 -20 11 0 39 30 34 36 -3 2 -13 -5
-23 -16z"/>
<path d="M5712 550 c7 -11 18 -20 25 -20 8 0 5 8 -7 20 -11 11 -22 20 -25 20
-3 0 0 -9 7 -20z"/>
<path d="M2795 530 c-3 -6 1 -7 9 -4 18 7 21 14 7 14 -6 0 -13 -4 -16 -10z"/>
<path d="M5671 514 c0 -11 3 -14 6 -6 3 7 2 16 -1 19 -3 4 -6 -2 -5 -13z"/>
<path d="M2758 468 c-18 -39 -21 -58 -19 -98 2 -36 21 -4 21 36 0 16 5 35 11
41 6 6 9 21 7 34 -4 22 -5 21 -20 -13z"/>
<path d="M2560 443 c0 -6 8 -17 18 -24 16 -13 16 -13 2 6 -8 11 -16 22 -17 24
-2 2 -3 0 -3 -6z"/>
<path d="M2417 376 c-9 -24 -9 -28 3 -21 6 3 10 1 10 -5 0 -13 57 -70 69 -70
4 0 8 7 8 15 0 8 -4 12 -9 9 -4 -3 -19 6 -33 20 -22 23 -24 29 -14 48 11 20
10 22 -3 10 -13 -10 -17 -10 -20 0 -3 8 -7 6 -11 -6z"/>
<path d="M2490 350 c0 -5 5 -10 10 -10 6 0 10 5 10 10 0 6 -4 10 -10 10 -5 0
-10 -4 -10 -10z"/>
<path d="M2530 349 c0 -5 5 -7 10 -4 6 3 10 8 10 11 0 2 -4 4 -10 4 -5 0 -10
-5 -10 -11z"/>
<path d="M2731 324 c0 -11 3 -14 6 -6 3 7 2 16 -1 19 -3 4 -6 -2 -5 -13z"/>
<path d="M2712 275 c-6 -14 -16 -25 -21 -25 -9 0 -61 -146 -61 -171 0 -8 11
10 25 39 14 30 25 63 25 73 0 11 12 37 26 59 15 22 25 43 22 45 -3 3 -10 -6
-16 -20z"/>
<path d="M2617 47 c-4 -10 -7 -26 -7 -35 1 -15 2 -15 11 1 6 10 9 25 7 35 -3
16 -4 15 -11 -1z"/>
</g>
</svg>
