<?xml version="1.0" standalone="no"?>
<!DOCTYPE svg PUBLIC "-//W3C//DTD SVG 20010904//EN"
 "http://www.w3.org/TR/2001/REC-SVG-20010904/DTD/svg10.dtd">
<svg version="1.0" xmlns="http://www.w3.org/2000/svg"
 width="400.000000pt" height="400.000000pt" viewBox="0 0 400.000000 400.000000"
 preserveAspectRatio="xMidYMid meet">

<g transform="translate(0.000000,400.000000) scale(0.100000,-0.100000)"
fill="#000000" stroke="none">
<path d="M1561 3850 c0 -14 4 -32 9 -40 8 -12 10 -12 9 5 0 11 -4 29 -9 40 -8
18 -9 18 -9 -5z"/>
<path d="M1586 3763 c3 -16 9 -39 14 -53 5 -14 18 -77 30 -140 12 -63 35 -153
52 -200 17 -47 32 -96 33 -109 2 -13 8 -28 14 -34 16 -16 14 2 -4 53 -26 73
-19 91 15 38 17 -27 30 -52 30 -57 0 -6 5 -13 11 -16 21 -14 2 127 -25 178
-14 26 -33 75 -41 109 -9 34 -28 82 -41 107 l-25 46 7 -39 c4 -26 3 -37 -3
-33 -18 11 -26 79 -11 88 9 6 6 11 -12 18 -14 5 -19 10 -12 10 17 1 15 21 -3
21 -8 0 -15 9 -15 20 0 11 -5 20 -10 20 -6 0 -8 -12 -4 -27z m99 -194 c4 -11
4 -23 1 -26 -3 -4 -6 1 -6 10 0 10 -4 17 -10 17 -5 0 -10 5 -10 10 0 18 19 10
25 -11z"/>
<path d="M2423 3745 c0 -22 2 -30 4 -17 2 12 2 30 0 40 -3 9 -5 -1 -4 -23z"/>
<path d="M1901 3643 c-7 -54 -16 -123 -21 -153 -15 -90 -19 -140 -10 -140 4 0
10 18 14 40 3 22 12 40 19 40 9 0 12 39 13 155 1 85 0 155 -1 155 -1 0 -8 -44
-14 -97z"/>
<path d="M1080 3721 c0 -10 58 -110 70 -121 3 -3 15 -25 28 -50 24 -46 47 -82
102 -157 16 -23 30 -47 30 -53 0 -5 11 -10 25 -10 14 0 37 -11 51 -25 14 -14
27 -25 29 -25 3 0 -22 38 -55 85 -33 47 -60 89 -60 93 0 8 -37 42 -45 42 -2 0
-1 -7 2 -17 4 -11 3 -14 -6 -9 -6 4 -9 16 -6 27 4 10 2 27 -4 36 -6 10 -11 12
-11 6 0 -19 -20 -16 -20 2 0 9 -10 26 -22 39 -32 32 -68 83 -68 96 0 5 -4 10
-10 10 -5 0 -10 6 -10 14 0 8 -4 18 -10 21 -5 3 -10 1 -10 -4z"/>
<path d="M3314 3600 c-10 -22 -22 -40 -27 -40 -4 0 -16 -15 -27 -32 -16 -26
-20 -29 -20 -13 0 12 -16 -7 -40 -48 -22 -38 -40 -71 -40 -74 0 -2 18 15 40
39 42 46 56 39 16 -9 -13 -15 -33 -49 -46 -75 -24 -52 -50 -81 -50 -55 0 8 6
20 14 26 8 6 16 22 20 34 4 18 2 17 -19 -8 -13 -17 -31 -43 -39 -60 -8 -16
-35 -61 -60 -100 -25 -38 -46 -74 -46 -80 0 -5 -14 -28 -30 -49 -33 -43 -41
-29 -16 27 20 44 43 120 61 200 9 38 25 89 36 114 11 25 17 48 15 51 -3 3 -10
-7 -15 -21 -5 -14 -14 -28 -20 -31 -5 -3 -13 -21 -16 -39 -4 -17 -11 -37 -16
-42 -18 -23 -159 -310 -159 -325 0 -12 -2 -13 -9 -1 -6 10 -13 -2 -24 -40 -18
-61 -16 -70 13 -44 27 24 26 8 -2 -74 -17 -48 -20 -65 -10 -68 13 -5 17 -43 4
-43 -4 0 -13 -9 -20 -21 -10 -15 -10 -24 -2 -34 8 -10 8 -15 0 -20 -7 -4 -9
-18 -6 -30 3 -13 2 -27 -4 -30 -7 -4 -6 -13 1 -26 15 -29 2 -119 -17 -119 -8
0 -32 -18 -53 -40 -37 -39 -40 -40 -104 -40 l-67 0 0 -42 c1 -38 2 -41 14 -26
9 13 29 18 67 19 30 1 64 8 76 16 34 20 41 16 48 -29 5 -37 -25 -254 -39 -276
-2 -4 -12 -79 -21 -167 -15 -142 -21 -168 -52 -235 -19 -41 -50 -93 -69 -116
-18 -23 -38 -54 -44 -68 -5 -14 -14 -26 -18 -26 -5 0 -22 -19 -38 -42 -16 -24
-32 -45 -36 -48 -12 -10 -58 -81 -58 -90 0 -6 -4 -10 -9 -10 -5 0 -12 -8 -16
-17 -3 -10 -22 -37 -43 -60 l-37 -42 -120 -16 c-66 -8 -174 -26 -240 -39 -191
-39 -222 -42 -245 -21 -11 10 -20 23 -20 30 0 7 -9 20 -20 30 -11 10 -32 38
-46 63 -28 48 -113 139 -126 134 -5 -1 -7 1 -6 6 2 4 -23 32 -56 62 -117 109
-137 132 -166 189 -16 32 -34 89 -40 127 -21 122 -39 207 -69 314 -16 58 -31
130 -35 160 l-6 55 67 -2 c57 -1 69 -5 85 -25 l18 -23 0 22 c0 12 -5 25 -10
28 -5 3 -10 25 -11 48 0 33 -2 38 -9 21 -6 -14 -21 -23 -47 -27 -59 -10 -60
-10 -84 33 -13 22 -26 40 -30 40 -16 0 -32 88 -35 190 -2 58 -4 105 -4 105 -1
0 -3 26 -5 58 -3 36 -1 55 5 52 6 -3 10 -1 10 4 0 6 -8 11 -18 11 -9 0 -22 8
-27 19 -55 104 -72 132 -99 169 -46 65 -88 113 -93 108 -2 -2 8 -32 22 -67 59
-144 84 -247 37 -152 -51 104 -132 245 -132 230 0 -4 11 -35 25 -69 14 -34 25
-69 25 -78 0 -45 87 -282 146 -397 24 -48 44 -89 44 -92 0 -3 -22 -4 -48 -3
-35 3 -52 -1 -61 -12 -15 -18 -9 -20 36 -7 36 10 94 -1 111 -22 5 -6 13 -37
16 -67 6 -46 5 -52 -6 -40 -23 27 -88 60 -119 60 -54 0 -99 -69 -99 -152 0
-51 17 -29 24 31 7 64 23 85 72 95 40 9 59 -12 50 -55 -6 -33 -43 -79 -63 -79
-7 0 -17 -8 -22 -17 -9 -16 -12 -16 -21 -3 -11 16 -9 -5 7 -67 6 -26 7 -24 12
15 6 41 9 45 46 58 22 7 47 22 55 32 9 10 23 18 33 16 21 -3 22 12 2 23 -9 6
-11 13 -5 23 7 11 11 9 19 -13 6 -15 8 -34 4 -44 -5 -13 -3 -15 13 -9 18 7 18
6 2 -10 -15 -15 -44 -11 -34 5 3 4 -1 8 -9 8 -10 0 -12 -4 -5 -12 10 -12 4
-25 -12 -25 -5 0 -6 5 -3 10 3 6 1 10 -4 10 -6 0 -11 -7 -11 -16 0 -9 -9 -32
-21 -50 -19 -31 -19 -35 -5 -63 9 -16 20 -32 25 -35 10 -6 25 24 16 32 -3 3
-5 0 -5 -6 0 -24 -15 -11 -16 13 -1 14 2 25 6 25 4 0 11 7 14 16 5 14 4 15 -9
4 -10 -8 -15 -9 -15 -1 0 10 14 15 33 12 4 -1 10 6 13 14 4 8 14 15 23 14 10
0 11 -2 4 -6 -7 -2 -13 -9 -13 -14 0 -6 5 -7 10 -4 14 9 12 -28 -2 -44 -11
-11 -10 -13 4 -8 16 6 34 -18 20 -26 -4 -2 -1 -2 6 -1 7 2 21 -5 32 -16 11
-11 24 -20 30 -20 5 0 12 -12 16 -27 3 -16 8 -36 11 -45 2 -10 -1 -18 -7 -18
-7 0 -9 -8 -4 -22 6 -20 5 -21 -10 -9 -11 9 -16 10 -16 2 0 -6 10 -16 23 -22
21 -9 21 -9 -3 -4 -14 2 -29 5 -33 5 -5 0 -5 5 -2 10 3 6 1 10 -4 10 -6 0 -11
8 -11 18 0 14 -2 15 -10 2 -5 -8 -12 -11 -16 -7 -11 10 9 28 33 30 15 1 19 6
14 22 -4 17 -6 18 -9 3 -2 -10 -8 -18 -14 -18 -6 0 -20 8 -31 18 -19 17 -19
16 -6 -5 7 -12 9 -26 5 -30 -5 -4 -11 -2 -13 5 -5 12 -33 17 -33 6 0 -4 19
-24 42 -45 33 -30 54 -40 91 -45 57 -8 67 -24 67 -110 0 -52 -1 -54 -26 -54
-45 0 -112 40 -124 73 -5 17 -10 37 -10 45 0 14 -77 114 -94 121 -5 2 -30 22
-55 45 -58 51 -25 10 51 -65 47 -45 88 -108 88 -133 0 -2 -44 -12 -98 -21 -53
-9 -142 -29 -197 -43 -63 -17 -125 -26 -168 -25 -56 0 -67 -2 -62 -15 7 -18
-28 -49 -65 -57 -16 -4 -53 -18 -82 -32 -29 -14 -78 -36 -107 -50 -30 -13 -69
-35 -87 -48 -17 -13 -50 -32 -73 -41 l-41 -16 0 -689 0 -689 2000 0 2000 0 0
1619 c0 1024 -4 1622 -10 1626 -5 3 -17 30 -26 60 -10 30 -35 75 -56 101 -21
25 -38 50 -38 55 0 17 -86 52 -130 53 -68 1 -305 -58 -395 -99 -26 -12 -31
-12 -35 1 -7 19 -44 -33 -86 -119 -15 -31 -29 -55 -31 -53 -3 2 2 17 10 33 8
15 28 73 46 128 18 55 46 129 63 163 16 35 28 66 25 68 -2 2 -12 -14 -23 -36z
m-330 -1143 c17 -18 42 -56 56 -83 21 -42 25 -63 24 -139 0 -108 -21 -160 -94
-235 -26 -27 -69 -86 -95 -132 -27 -46 -57 -93 -68 -105 -19 -21 -19 -21 2
-32 27 -15 30 -85 4 -95 -23 -9 -83 13 -83 30 0 16 16 19 25 4 3 -5 17 -10 31
-10 36 0 32 36 -8 60 -31 19 -54 18 -42 -1 8 -14 -28 -7 -44 8 -28 27 16 110
80 152 27 18 53 42 59 54 5 12 13 29 17 37 50 90 61 120 42 120 -5 0 -7 -7 -4
-15 4 -8 1 -15 -5 -15 -6 0 -11 -6 -11 -14 0 -8 -5 -16 -11 -18 -5 -2 -11 -10
-13 -18 -5 -33 -18 -60 -28 -60 -6 0 -7 8 -3 18 4 9 8 26 11 36 2 11 14 30 26
43 19 21 23 36 23 92 0 64 1 67 22 63 12 -2 25 -13 28 -23 4 -10 11 -19 16
-19 14 0 11 38 -3 42 -9 3 -8 9 5 22 9 10 17 27 16 39 -1 21 -2 20 -15 -23 -5
-13 -6 -13 -14 0 -8 12 -10 11 -11 -5 l0 -20 -9 20 c-13 29 -12 35 5 29 10 -4
15 0 15 15 0 12 -5 21 -11 21 -6 0 -9 6 -6 13 7 19 -8 41 -23 32 -7 -4 -8 -10
-3 -14 5 -3 1 -14 -9 -24 -18 -17 -18 -17 -14 6 6 36 28 67 47 67 9 0 28 -11
42 -24 22 -20 25 -30 20 -64 -4 -27 0 -47 10 -62 l15 -21 6 25 c11 44 -13 123
-46 151 -43 36 -72 31 -130 -23 -15 -14 -30 -23 -33 -20 -12 12 15 93 37 110
60 49 109 50 152 5z m-84 -157 c0 -5 -4 -10 -10 -10 -5 0 -10 5 -10 10 0 6 5
10 10 10 6 0 10 -4 10 -10z m87 -42 c-3 -7 -5 -2 -5 12 0 14 2 19 5 13 2 -7 2
-19 0 -25z m-182 -48 c4 -6 11 -8 16 -5 5 3 6 -1 2 -10 -4 -12 -8 -13 -13 -5
-4 7 -14 16 -21 21 -9 6 -10 9 -2 9 6 0 15 -5 18 -10z m15 -40 c15 18 20 19
20 7 0 -8 -6 -22 -13 -29 -8 -7 -16 -20 -20 -28 -3 -10 -6 -7 -6 8 -1 12 -5
22 -11 22 -5 0 -10 10 -9 23 0 22 0 22 10 -2 l9 -24 20 23z m35 -29 c3 -5 1
-12 -5 -16 -5 -3 -10 1 -10 9 0 18 6 21 15 7z m-105 -31 c0 -5 -5 -10 -11 -10
-5 0 -7 5 -4 10 3 6 8 10 11 10 2 0 4 -4 4 -10z m77 -12 c-3 -8 -6 -5 -6 6 -1
11 2 17 5 13 3 -3 4 -12 1 -19z m-1763 -44 c7 -17 -6 -18 -22 -2 -7 7 -12 15
-12 20 0 12 28 -2 34 -18z m1753 -6 c-3 -8 -6 -5 -6 6 -1 11 2 17 5 13 3 -3 4
-12 1 -19z m-32 -8 c-3 -5 -10 -10 -16 -10 -5 0 -9 5 -9 10 0 6 7 10 16 10 8
0 12 -4 9 -10z m-62 -105 c-7 -21 -13 -19 -13 6 0 11 4 18 10 14 5 -3 7 -12 3
-20z m77 5 c0 -23 -13 -26 -29 -6 -9 11 -9 15 1 19 23 10 28 7 28 -13z m-55
-30 c-3 -5 -12 -10 -18 -10 -7 0 -6 4 3 10 19 12 23 12 15 0z"/>
<path d="M2934 2335 c3 -8 0 -15 -6 -15 -6 0 -9 -2 -6 -5 3 -3 13 -3 22 1 21
8 21 34 0 34 -10 0 -14 -6 -10 -15z"/>
<path d="M2956 2221 c-4 -6 0 -18 8 -27 12 -12 16 -12 16 -2 0 22 -17 42 -24
29z"/>
<path d="M820 3617 c0 -8 -7 -20 -15 -27 -12 -10 -15 -9 -15 4 0 11 5 14 12
10 7 -4 8 -3 4 4 -17 28 -35 6 -52 -65 -5 -17 -3 -24 4 -19 11 7 206 -68 232
-89 8 -7 40 -25 70 -39 30 -15 65 -37 77 -48 13 -12 26 -18 30 -14 4 3 -10 21
-31 39 -21 17 -55 48 -76 67 -55 51 -77 69 -150 124 -36 26 -71 53 -77 58 -9
8 -13 6 -13 -5z m-4 -52 c-23 -18 -36 -19 -36 -4 0 5 4 8 9 4 5 -3 12 -1 16 5
3 5 12 10 18 10 7 0 3 -7 -7 -15z m49 5 c3 -5 1 -10 -4 -10 -6 0 -11 5 -11 10
0 6 2 10 4 10 3 0 8 -4 11 -10z"/>
<path d="M2727 3601 c-9 -16 -17 -39 -17 -50 0 -22 -20 -30 -20 -8 -1 6 -9 -4
-20 -23 -10 -19 -27 -44 -37 -55 -10 -11 -28 -41 -40 -67 -23 -48 -52 -88 -64
-88 -4 0 -5 19 -3 43 3 41 3 40 -10 -12 -24 -89 -13 -89 88 1 75 68 92 88 98
119 4 21 12 47 17 58 6 11 11 33 11 48 0 16 5 34 12 41 6 6 9 14 7 17 -3 2
-13 -9 -22 -24z"/>
<path d="M2160 3534 c0 -8 -4 -12 -10 -9 -5 3 -10 0 -10 -8 0 -8 -7 -28 -15
-43 -19 -36 -19 -55 -1 -48 23 9 66 124 47 124 -6 0 -11 -7 -11 -16z"/>
<path d="M3356 3535 c-9 -26 -7 -32 5 -12 6 10 9 21 6 23 -2 3 -7 -2 -11 -11z"/>
<path d="M3326 3483 c-6 -14 -5 -15 5 -6 7 7 10 15 7 18 -3 3 -9 -2 -12 -12z"/>
<path d="M736 3473 c-3 -10 -8 -36 -11 -58 -4 -22 -9 -49 -11 -60 -4 -16 -3
-17 5 -4 10 15 15 35 28 107 6 34 -2 45 -11 15z"/>
<path d="M2536 3481 c-4 -7 -5 -15 -2 -18 9 -9 19 4 14 18 -4 11 -6 11 -12 0z"/>
<path d="M1360 3467 c0 -15 31 -69 37 -63 3 3 -4 20 -16 38 -11 18 -21 29 -21
25z"/>
<path d="M2212 3439 c-13 -16 -22 -34 -20 -40 2 -6 16 7 31 30 31 47 23 54
-11 10z"/>
<path d="M2041 3444 c0 -11 3 -14 6 -6 3 7 2 16 -1 19 -3 4 -6 -2 -5 -13z"/>
<path d="M1460 3436 c0 -8 4 -17 9 -20 5 -4 7 3 4 14 -6 23 -13 26 -13 6z"/>
<path d="M2848 3405 c-10 -13 -18 -29 -18 -36 0 -7 -12 -24 -26 -39 -23 -23
-27 -35 -29 -100 -2 -73 -1 -73 13 -39 33 76 40 96 47 134 4 21 13 52 22 68
18 36 13 42 -9 12z"/>
<path d="M2160 3385 c-7 -9 -11 -17 -9 -20 3 -2 10 5 17 15 14 24 10 26 -8 5z"/>
<path d="M2347 3393 c-4 -3 -7 -13 -7 -22 1 -13 3 -13 11 2 11 19 8 33 -4 20z"/>
<path d="M790 3371 c0 -6 4 -13 10 -16 6 -3 7 1 4 9 -7 18 -14 21 -14 7z"/>
<path d="M2926 3363 c-6 -14 -5 -15 5 -6 7 7 10 15 7 18 -3 3 -9 -2 -12 -12z"/>
<path d="M2736 3351 c-4 -7 -5 -15 -2 -18 9 -9 19 4 14 18 -4 11 -6 11 -12 0z"/>
<path d="M1080 3340 c0 -5 5 -10 11 -10 5 0 7 5 4 10 -3 6 -8 10 -11 10 -2 0
-4 -4 -4 -10z"/>
<path d="M2422 3308 c-1 -20 -5 -45 -8 -55 -5 -17 -5 -17 6 0 6 9 9 34 7 55
l-4 37 -1 -37z"/>
<path d="M701 3315 c-1 -11 -4 -31 -6 -45 l-6 -25 11 25 c6 13 9 33 7 45 -4
19 -4 19 -6 0z"/>
<path d="M1240 3320 c0 -5 7 -10 16 -10 8 0 12 5 9 10 -3 6 -10 10 -16 10 -5
0 -9 -4 -9 -10z"/>
<path d="M1862 3300 c0 -19 2 -27 5 -17 2 9 2 25 0 35 -3 9 -5 1 -5 -18z"/>
<path d="M1150 3310 c0 -5 5 -10 10 -10 6 0 10 5 10 10 0 6 -4 10 -10 10 -5 0
-10 -4 -10 -10z"/>
<path d="M1490 3309 c0 -5 5 -7 10 -4 6 3 10 8 10 11 0 2 -4 4 -10 4 -5 0 -10
-5 -10 -11z"/>
<path d="M2041 3304 c0 -11 3 -14 6 -6 3 7 2 16 -1 19 -3 4 -6 -2 -5 -13z"/>
<path d="M840 3300 c0 -7 15 -38 34 -69 19 -31 41 -74 49 -96 8 -22 26 -71 40
-109 13 -38 27 -62 29 -55 3 8 12 1 23 -19 18 -30 35 -42 35 -24 -1 18 -48
195 -49 182 -1 -9 -8 -5 -19 12 -38 59 -142 189 -142 178z"/>
<path d="M1120 3291 c0 -6 6 -11 13 -11 6 0 4 -5 -7 -11 -15 -9 -16 -13 -5
-20 8 -5 17 -9 22 -9 13 0 7 37 -8 50 -10 9 -15 9 -15 1z"/>
<path d="M1512 3280 c0 -14 2 -19 5 -12 2 6 2 18 0 25 -3 6 -5 1 -5 -13z"/>
<path d="M1050 3280 c0 -5 5 -10 10 -10 6 0 10 5 10 10 0 6 -4 10 -10 10 -5 0
-10 -4 -10 -10z"/>
<path d="M1930 3265 c0 -14 5 -25 10 -25 6 0 10 11 10 25 0 14 -4 25 -10 25
-5 0 -10 -11 -10 -25z"/>
<path d="M2250 3280 c0 -5 5 -10 11 -10 5 0 7 5 4 10 -3 6 -8 10 -11 10 -2 0
-4 -4 -4 -10z"/>
<path d="M1000 3266 c0 -9 5 -16 10 -16 6 0 10 4 10 9 0 6 -4 13 -10 16 -5 3
-10 -1 -10 -9z"/>
<path d="M1450 3268 c0 -9 5 -20 10 -23 13 -8 13 5 0 25 -8 13 -10 13 -10 -2z"/>
<path d="M2721 3264 c0 -11 3 -14 6 -6 3 7 2 16 -1 19 -3 4 -6 -2 -5 -13z"/>
<path d="M2647 3263 c-4 -3 -7 -11 -7 -17 0 -6 5 -5 12 2 6 6 9 14 7 17 -3 3
-9 2 -12 -2z"/>
<path d="M510 3249 c0 -8 7 -24 15 -35 18 -24 19 -7 0 26 -9 16 -14 19 -15 9z"/>
<path d="M577 3192 c-3 -26 -2 -63 3 -82 6 -28 8 -19 9 48 1 45 -1 82 -3 82
-2 0 -6 -21 -9 -48z"/>
<path d="M682 3210 c0 -19 2 -27 5 -17 2 9 2 25 0 35 -3 9 -5 1 -5 -18z"/>
<path d="M2704 3218 c-9 -28 -1 -29 18 -4 13 18 14 23 2 23 -7 0 -16 -9 -20
-19z"/>
<path d="M840 3183 c0 -7 15 -45 34 -85 77 -168 108 -251 96 -258 -7 -5 -9
-16 -5 -29 3 -12 11 -19 16 -15 6 3 21 -4 35 -17 13 -12 26 -20 29 -18 6 7
-48 161 -63 179 -24 27 -62 91 -62 103 0 13 -43 97 -66 132 -8 11 -14 14 -14
8z"/>
<path d="M1066 3162 c-3 -5 1 -15 9 -22 21 -17 27 -9 10 13 -7 10 -16 14 -19
9z"/>
<path d="M2376 3119 c-22 -67 -15 -74 8 -8 10 27 16 52 13 55 -2 3 -12 -18
-21 -47z"/>
<path d="M2802 3097 c-18 -34 -26 -53 -18 -43 9 11 16 24 16 29 0 5 6 7 14 4
10 -4 15 5 19 31 2 20 4 38 3 39 -1 1 -16 -26 -34 -60z"/>
<path d="M673 3045 c0 -33 2 -45 4 -27 2 18 2 45 0 60 -2 15 -4 0 -4 -33z"/>
<path d="M2395 3079 c-4 -6 -5 -12 -2 -15 2 -3 7 2 10 11 7 17 1 20 -8 4z"/>
<path d="M592 3030 c-1 -25 6 -63 14 -85 9 -22 20 -59 26 -82 5 -24 14 -43 19
-43 5 0 9 -8 9 -17 0 -15 -2 -16 -10 -3 -13 20 -12 6 1 -24 6 -13 17 -23 23
-20 15 6 49 -55 38 -70 -5 -6 0 -26 10 -46 10 -19 18 -29 18 -22 0 7 -5 22
-11 33 -6 11 -9 25 -7 31 2 6 14 -8 25 -33 32 -67 142 -216 143 -193 0 6 -11
27 -24 47 -13 19 -27 46 -31 58 -3 13 -19 49 -34 79 -24 46 -98 257 -114 325
-4 16 -5 16 -6 -5 -1 -29 15 -92 34 -135 7 -16 23 -61 35 -100 11 -38 26 -78
31 -88 6 -11 8 -21 5 -24 -2 -3 -17 19 -31 49 -15 29 -39 68 -52 87 -14 18
-29 47 -34 65 -4 17 -20 63 -34 101 -15 39 -30 90 -35 115 l-8 45 0 -45z"/>
<path d="M2354 3023 c-21 -21 -29 -22 -175 -19 -85 2 -167 7 -184 11 -29 7
-29 7 -12 -11 17 -18 46 -22 275 -38 56 -4 70 -18 44 -42 -11 -11 -24 -32 -27
-47 -6 -24 -11 -27 -29 -22 -40 13 -107 8 -125 -10 -15 -16 -14 -17 16 -13 28
4 31 2 20 -11 -6 -9 -16 -19 -22 -23 -6 -5 -4 -8 5 -8 8 0 28 11 44 25 32 27
51 30 91 15 14 -5 24 -6 21 -1 -3 4 1 17 9 27 8 10 15 31 15 47 0 19 7 31 25
39 31 14 101 -11 149 -52 17 -15 46 -35 64 -44 18 -9 62 -45 97 -80 36 -35 65
-60 65 -56 0 5 -5 32 -12 61 -10 44 -19 57 -60 87 -26 20 -48 40 -48 44 0 4
-13 14 -29 23 -16 8 -44 28 -62 45 -32 28 -54 35 -106 33 -15 -1 -23 5 -25 20
l-3 22 -21 -22z"/>
<path d="M520 3026 c0 -2 15 -31 34 -65 19 -33 38 -70 42 -83 6 -22 34 -68 34
-57 0 3 -11 34 -25 69 -27 70 -85 162 -85 136z"/>
<path d="M1294 2918 c-16 -13 -41 -34 -55 -48 -29 -28 -87 -77 -101 -86 -5 -3
-16 0 -25 8 -9 7 -14 8 -10 2 4 -7 0 -17 -8 -24 -8 -7 -15 -21 -15 -31 0 -10
-9 -42 -20 -71 -22 -59 -21 -67 5 -38 10 11 24 20 31 20 7 0 23 14 36 31 13
17 34 41 47 52 13 12 44 41 70 65 63 59 88 71 189 87 111 19 150 18 186 0 34
-18 37 -18 34 -3 -5 24 -54 39 -153 48 -155 14 -179 13 -211 -12z"/>
<path d="M2251 2874 c0 -11 3 -14 6 -6 3 7 2 16 -1 19 -3 4 -6 -2 -5 -13z"/>
<path d="M1686 2835 c9 -22 -40 -42 -61 -25 -26 22 -145 -6 -145 -34 0 -4 15
-6 33 -2 29 5 71 -1 122 -19 14 -4 13 -2 -5 10 l-25 16 28 -6 c33 -7 56 3 36
16 -11 7 -10 9 3 9 9 0 18 6 21 13 3 9 9 8 23 -3 30 -24 64 -41 64 -32 0 9
-80 72 -92 72 -4 0 -5 -7 -2 -15z"/>
<path d="M2185 2746 c-25 -25 -26 -46 -4 -46 6 0 18 7 27 16 19 20 101 14 147
-10 17 -9 36 -16 43 -16 7 0 32 -9 57 -21 30 -14 45 -27 45 -40 0 -18 25 -37
35 -27 3 2 0 20 -6 40 -6 25 -17 39 -32 43 -24 7 -77 27 -145 57 -24 11 -65
22 -92 25 -43 5 -51 3 -75 -21z"/>
<path d="M1440 2715 c-36 -19 -71 -34 -78 -35 -19 0 -78 -42 -101 -71 -11 -14
-23 -38 -26 -52 -10 -40 18 -35 52 9 32 41 112 95 167 114 37 12 103 10 137
-4 13 -6 17 -1 17 17 0 19 -9 27 -47 41 -25 9 -48 16 -51 16 -3 -1 -34 -16
-70 -35z"/>
<path d="M686 2707 c3 -10 9 -15 12 -12 3 3 0 11 -7 18 -10 9 -11 8 -5 -6z"/>
<path d="M763 2560 c6 -16 15 -30 19 -30 5 0 2 14 -7 30 -9 17 -17 30 -19 30
-3 0 1 -13 7 -30z"/>
<path d="M2572 2508 c6 -18 28 -21 28 -4 0 9 -7 16 -16 16 -9 0 -14 -5 -12
-12z"/>
<path d="M1813 2400 c4 -15 -4 -27 -27 -45 -18 -14 -38 -25 -44 -25 -8 0 -12
-18 -12 -47 1 -44 2 -46 13 -25 12 22 66 57 74 49 2 -3 -2 -17 -8 -33 -15 -35
-16 -38 -28 -89 -5 -22 -6 -42 -2 -45 4 -3 11 -17 14 -31 5 -19 2 -29 -9 -33
-8 -3 -13 -2 -10 2 2 4 1 14 -5 22 -7 12 -9 10 -9 -9 0 -44 77 -140 101 -125
14 8 1 62 -24 96 -28 38 -32 117 -9 198 l18 65 42 -2 c51 -2 94 -33 117 -83
l16 -35 -6 40 c-2 22 -5 53 -5 68 0 16 -4 26 -10 22 -5 -3 -26 4 -47 15 -21
11 -50 20 -65 20 -39 0 -58 10 -58 31 0 10 -5 19 -11 19 -6 0 -9 -9 -6 -20z
m26 -398 c0 -14 -2 -14 -6 -2 -4 8 -14 21 -25 28 -10 7 -18 19 -18 27 0 9 9 5
25 -11 14 -14 25 -33 24 -42z"/>
<path d="M2061 2329 c-21 -8 -23 -14 -19 -59 10 -103 129 -210 235 -210 94 0
185 72 217 171 17 50 11 82 -18 101 -16 11 -387 8 -415 -3z"/>
<path d="M1445 2285 c-123 -14 -195 -32 -202 -51 -10 -26 18 -80 66 -130 43
-44 56 -52 107 -62 64 -12 133 -4 175 19 34 19 99 92 99 112 0 9 5 19 10 22
14 9 13 78 -2 93 -15 15 -107 14 -253 -3z"/>
<path d="M742 2260 c0 -19 2 -27 5 -17 2 9 2 25 0 35 -3 9 -5 1 -5 -18z"/>
<path d="M1771 2233 c-1 -6 -4 -20 -7 -30 -5 -17 -5 -17 6 0 6 10 9 23 6 30
-3 9 -5 9 -5 0z"/>
<path d="M732 2200 c0 -14 2 -19 5 -12 2 6 2 18 0 25 -3 6 -5 1 -5 -13z"/>
<path d="M2036 2166 c9 -50 77 -111 144 -130 132 -36 227 -8 300 89 14 19 14
19 -5 5 -28 -20 -78 -58 -92 -70 -24 -20 -147 -24 -200 -6 -47 16 -131 88
-147 126 -3 8 -4 2 0 -14z"/>
<path d="M721 2154 c0 -11 3 -14 6 -6 3 7 2 16 -1 19 -3 4 -6 -2 -5 -13z"/>
<path d="M1669 2094 c-79 -83 -204 -107 -311 -60 -30 13 -67 38 -81 55 -27 32
-37 38 -37 21 0 -19 71 -80 118 -101 66 -31 162 -32 222 -2 50 25 102 68 119
101 16 30 10 28 -30 -14z"/>
<path d="M143 2036 c4 -10 7 -24 7 -31 0 -7 21 -41 46 -76 26 -34 50 -74 53
-87 4 -14 21 -33 39 -42 17 -10 41 -28 51 -41 18 -21 20 -22 21 -6 0 10 -16
33 -36 50 -20 18 -43 46 -50 62 -21 45 -36 67 -61 90 -15 13 -23 32 -23 53 0
18 -4 32 -9 32 -5 0 -17 3 -27 7 -14 5 -16 3 -11 -11z"/>
<path d="M1061 1933 c0 -4 4 -17 9 -28 8 -19 9 -19 9 2 1 12 -3 25 -9 28 -5 3
-10 3 -9 -2z"/>
<path d="M1010 1920 c0 -5 5 -10 10 -10 6 0 10 5 10 10 0 6 -4 10 -10 10 -5 0
-10 -4 -10 -10z"/>
<path d="M2430 1771 c8 -16 6 -22 -7 -30 -10 -6 -13 -11 -7 -11 18 0 37 28 30
45 -3 8 -10 15 -16 15 -8 0 -8 -6 0 -19z"/>
<path d="M2357 1724 c-3 -3 -149 -7 -324 -7 l-318 -2 -80 -28 c-111 -40 -146
-40 -161 -2 -8 22 -11 23 -28 10 -16 -12 -17 -17 -6 -30 7 -8 21 -15 32 -15
32 0 57 -19 77 -59 49 -95 154 -170 251 -177 l55 -4 -65 19 c-36 10 -83 29
-106 42 -40 23 -94 78 -94 95 0 5 19 17 43 27 31 14 97 22 247 33 113 8 225
14 250 13 52 -3 140 -44 140 -66 0 -47 -97 -111 -225 -148 -66 -19 -72 -28
-12 -18 51 8 141 46 183 78 31 24 144 183 144 203 0 6 10 18 22 26 22 16 22
16 2 16 -11 0 -23 -3 -27 -6z"/>
<path d="M1880 1279 l-45 -21 50 -14 c62 -16 136 -18 170 -2 32 14 32 23 -2
36 -60 23 -126 23 -173 1z"/>
</g>
</svg>
